/* XPM */
static char *coin41703350783[] = {
/* columns rows colors chars-per-pixel */
"64 64 195 2 ",
"   c None",
".  c #0D0304",
"X  c #0D040E",
"o  c #0D080F",
"O  c #100605",
"+  c #13090C",
"@  c #1C120E",
"#  c #0B0410",
"$  c #100510",
"%  c #1D1312",
"&  c #20170E",
"*  c #2B1B11",
"=  c #2E250C",
"-  c #33250C",
";  c #362E0C",
":  c #39230B",
">  c #3C360B",
",  c #322215",
"<  c #33261C",
"1  c #2E2525",
"2  c #312729",
"3  c #362E2E",
"4  c #352925",
"5  c #3A3436",
"6  c #40260C",
"7  c #4C2E0A",
"8  c #433C0B",
"9  c #4F3008",
"0  c #54340A",
"q  c #533207",
"w  c #593C16",
"e  c #643C08",
"r  c #4C460A",
"t  c #59460A",
"y  c #5D5709",
"u  c #54510A",
"i  c #7B4D06",
"p  c #734707",
"a  c #645C0A",
"s  c #74501D",
"d  c #666109",
"f  c #6A6409",
"g  c #6C6809",
"h  c #746D08",
"j  c #777309",
"k  c #797607",
"l  c #6C6519",
"z  c #5C4326",
"x  c #614D37",
"c  c #785930",
"v  c #7B603D",
"b  c #524D54",
"n  c #4A444A",
"m  c #635549",
"M  c #655D5C",
"N  c #625A56",
"B  c #696465",
"V  c #736F71",
"C  c #77737A",
"Z  c #767275",
"A  c #736C6A",
"S  c #804F06",
"D  c #945C04",
"F  c #9E7E06",
"G  c #966110",
"H  c #887C07",
"J  c #A86904",
"K  c #BE7601",
"L  c #9E6F25",
"P  c #A37938",
"I  c #C27801",
"U  c #CC7E02",
"Y  c #9F7B43",
"T  c #837668",
"R  c #898707",
"E  c #9D9A06",
"W  c #949106",
"Q  c #A69706",
"!  c #ADA605",
"~  c #B0A808",
"^  c #B7B504",
"/  c #B8B604",
"(  c #BCBA04",
")  c #BD8832",
"_  c #C98701",
"`  c #D58400",
"'  c #DC8700",
"]  c #DD8801",
"[  c #D78B09",
"{  c #D79400",
"}  c #D99F00",
"|  c #D08910",
" . c #D9921F",
".. c #E78F00",
"X. c #ED9300",
"o. c #E79603",
"O. c #F19500",
"+. c #F59A00",
"@. c #FE9C00",
"#. c #FF9700",
"$. c #F19C13",
"%. c #ED9916",
"&. c #C1AD04",
"*. c #D7BA02",
"=. c #CBBC03",
"-. c #EBAE01",
";. c #FFA200",
":. c #FFAA00",
">. c #FAA405",
",. c #E4BD00",
"<. c #E4B700",
"1. c #FEB300",
"2. c #FFBB00",
"3. c #F8B706",
"4. c #FFA613",
"5. c #FEA91C",
"6. c #DD9420",
"7. c #D7BA23",
"8. c #FFB63E",
"9. c #F6A826",
"0. c #DEC702",
"q. c #DFDD02",
"w. c #E4C100",
"e. c #EAC800",
"r. c #FFC400",
"t. c #F7C800",
"y. c #FFCE00",
"u. c #F1C001",
"i. c #EAD701",
"p. c #E1DE02",
"a. c #E9DF01",
"s. c #FFD200",
"d. c #FFDD00",
"f. c #F3DB00",
"g. c #E5E202",
"h. c #F6E500",
"j. c #FFE400",
"k. c #F7E900",
"l. c #FEEC00",
"z. c #FEF200",
"x. c #FDF900",
"c. c #A7974E",
"v. c #AD936E",
"b. c #C5984F",
"n. c #DEA64A",
"m. c #DDAB59",
"M. c #E7AC4A",
"N. c #FEBA4A",
"B. c #F7B64B",
"V. c #FFBE50",
"C. c #E5B15C",
"Z. c #C8A46C",
"A. c #E9BD76",
"S. c #FEC055",
"D. c #FFC35F",
"F. c #F1C34A",
"G. c #FBC66B",
"H. c #F4C271",
"J. c #FBCB78",
"K. c #FFD07B",
"L. c #8A878A",
"P. c #AA9B88",
"I. c #ABA196",
"U. c #B4ABA4",
"Y. c #B8B6B5",
"T. c #B2ADA9",
"R. c #D6B888",
"E. c #D4BF9F",
"W. c #DEC88F",
"Q. c #DFC499",
"!. c #FED58C",
"~. c #EBCA93",
"^. c #F4CF93",
"/. c #FDD593",
"(. c #FFD997",
"). c #F7D599",
"_. c #F7CC84",
"`. c #DACDBB",
"'. c #ECD1A5",
"]. c #FFDDA3",
"[. c #F2D7AA",
"{. c #E9D5B6",
"}. c #F4DDB4",
"|. c #FCE0AF",
" X c #FFE3B3",
".X c #BAB9C0",
"XX c #FFEECE",
"oX c #F9ECD6",
"OX c #FFF1D3",
"+X c #FEF2DC",
"@X c #E3E2E2",
"#X c #FCF6EA",
"$X c #FDF6E8",
"%X c #FEFCF4",
"&X c #FFFCF9",
/* pixels */
"                                                                                                                                ",
"                                                                                                                                ",
"                                                                                                                                ",
"                                                                                                                                ",
"                                                                                                                                ",
"                                                                                                                                ",
"                                                                                                                                ",
"                                                                                                                                ",
"                                                                                                                                ",
"                                                                                                                                ",
"                                                                                                                                ",
"                                                                                                                                ",
"                                                                                                                                ",
"                                                        $ # # $ X # X $ $                                                       ",
"                                                      - ; ; ; ; ; ; ; ; ; -                                                     ",
"                                                      u j R R R R R R R j u                                                     ",
"                                                  $ = h / p.p.p.q.p.p.p./ h - $                                                 ",
"                                                  r f Q 0.j.l.l.j.j.l.k.*.F w :                                                 ",
"                                                8 j ! *.u.r.r.r.r.r.r.r.-._ D e :                                               ",
"                                              + 8 E a.d.2.@.@.@.;.;.;.;.#...I i : +                                             ",
"                                              o 8 E g.j.2.#.#.#.#.#.#.@.+.X.I i : X                                             ",
"                                              @ r E g.d.2.@.;.;.;.;.;.;.+...I S 6 %                                             ",
"                                            8 y H &.e.r.:.:.1.2.r.r.1.:.+.O.` J p 7 :                                           ",
"                                          @ y W =.,.2.:.:.1.y.j.j.d.y.1.;.#...U J i 7 @                                         ",
"                                        X @ g ( l.y.:.#.@.2.d.z.x.k.s.3.;.@.@.X.` D 0 @ o                                       ",
"                                        # @ g ( z.s.:.#.@.2.d.z.h.w.-.>.@.@.;.O.' D 0 % o                                       ",
"                                        X @ d ( l.s.:.#.:.2.j.k.w.} ..+.@.@.+.X.` D 9 @ X                                       ",
"                                        X @ d / l.s.:.:.2.d.l.k.w.{ ' X.;.:.@.X.` D 0 @ o                                       ",
"                                        # @ d ^ l.y.:.2.s.z.x.k.,.{ ] O.@.;.+.X.` D q @ #                                       ",
"                                        # @ d ^ l.y.:.2.s.z.x.k.,.{ ] O.;.;.@.X.` D 0 @ #                                       ",
"                                        # @ d ^ l.s.:.:.2.s.l.k.w.{ ] O.@.;.+.X.` D q @ o                                       ",
"                                        # @ a ^ l.s.:.@.:.2.j.k.w.{ ] X.;.;.@.X.` D 9 % o                                       ",
"                                        # @ d ^ l.s.:.#.@.1.d.h.w.{ ] O.;.;.@.X.` D q % #                                       ",
"                                        # @ d / l.s.:.#.@.2.d.h.w.{ ] O.;.@.@.o.| G 0 @ #                                       ",
"                                        # + d ^ l.s.:.#.;.2.d.k.w.{ ] O.@.@.>.9.n.Y z @ X                                       ",
"                                        X % d / l.s.:.#.;.2.d.h.w.{ ] O.@.@.5.V.^.P.N % .                                       ",
"                                        # @ d / l.y.:.#.;.2.j.k.w.{ ' O.4.5.N.(.+XY.B % .                                       ",
"                                        # @ d / l.s.:.#.;.2.j.k.w.{ ' X.5.N.(.OX&X.XB % .                                       ",
"                                        X @ d ( l.y.:.@.@.1.s.f.<.{ [ $.N.(.$X%X#XT.M % .                                       ",
"                                        X @ f ( l.s.:.#.;.:.<.<.} [ 6.B./.OX%X+X~.v.x % .                                       ",
"                                        X & f ( l.s.:.@.@.+.X.{ _ | n.).+X%X#X[.m.L w @ o                                       ",
"                                        # @ g ( l.s.:.#.@.+...[  .n.~.oX%X+X X_.C.P z @ X                                       ",
"                                        X & g ( z.y.:.#.@.+.O.%.M.~.oX#X+X].G.J.^.v.m & .                                       ",
"                                          & d ~ i.t.:.:.;.>.4.8.(.oX&X#X XG.N.H.{.U.B %                                         ",
"                                            u h Q *.u.2.:.5.N.!.XX%X+X].K.K.J.R.P.C b                                           ",
"                                              ; a ! i.y.3.8./.OX%X%X|.D.S.!.{.I.N 3                                             ",
"                                                > j ~ 7.F./.OX%X$X}.!.G.H.R.U.Z 5                                               ",
"                                                  r l c.W.OX%X$X[.A.A./.W.P.B n                                                 ",
"                                                  O 1 A Y.@X@X`.Z.) b.E.Y.Z 1 O                                                 ",
"                                                      b Z L.L.T v s c T V b                                                     ",
"                                                      2 3 3 3 3 < , , 4 3 1                                                     ",
"                                                        O . . O X O o O .                                                       ",
"                                                                                                                                ",
"                                                                                                                                ",
"                                                                                                                                ",
"                                                                                                                                ",
"                                                                                                                                ",
"                                                                                                                                ",
"                                                                                                                                ",
"                                                                                                                                ",
"                                                                                                                                ",
"                                                                                                                                ",
"                                                                                                                                ",
"                                                                                                                                "
};
