/* XPM */
static char *coin11703350783[] = {
/* columns rows colors chars-per-pixel */
"64 64 197 2 ",
"   c None",
".  c #0B0202",
"X  c #06010E",
"o  c #0C040F",
"O  c #0E090F",
"+  c #050101",
"@  c #110A0F",
"#  c #1E130D",
"$  c #1F190D",
"%  c #0A0210",
"&  c #0E0910",
"*  c #1E151B",
"=  c #21140D",
"-  c #22190D",
";  c #2E1C0C",
":  c #29170D",
">  c #301D0C",
",  c #23191A",
"<  c #221815",
"1  c #2D2608",
"2  c #362D0C",
"3  c #3B260C",
"4  c #3B340C",
"5  c #352A2C",
"6  c #3B353B",
"7  c #402709",
"8  c #553509",
"9  c #5A3709",
"0  c #423A11",
"q  c #623C08",
"w  c #4D4609",
"e  c #6A4108",
"r  c #7D4E06",
"t  c #645B09",
"y  c #666109",
"u  c #6A6609",
"i  c #6B6606",
"p  c #7E7908",
"a  c #767406",
"s  c #7E6D08",
"d  c #5F4E3E",
"f  c #645B3E",
"g  c #6B6427",
"h  c #3C3741",
"j  c #4D464A",
"k  c #645B58",
"l  c #6A6353",
"z  c #686368",
"x  c #7F7979",
"c  c #804F06",
"v  c #8A5606",
"b  c #935B05",
"n  c #9D6203",
"m  c #837A08",
"M  c #AE6D02",
"N  c #B16E02",
"B  c #BD7601",
"V  c #B67602",
"C  c #916523",
"Z  c #C47A03",
"A  c #837852",
"S  c #9C9B06",
"D  c #A59B07",
"F  c #A0A006",
"G  c #B3AA05",
"H  c #A49623",
"J  c #D28300",
"K  c #DB8700",
"L  c #DC8900",
"P  c #D2870E",
"I  c #DE951D",
"U  c #E48E00",
"Y  c #EC9200",
"T  c #E59408",
"R  c #F29600",
"E  c #F69A00",
"W  c #FE9D00",
"Q  c #E29210",
"!  c #D8BA02",
"~  c #CCB503",
"^  c #FFA101",
"/  c #FFAC01",
"(  c #FFA40D",
")  c #F3A600",
"_  c #FFB100",
"`  c #FEBB01",
"'  c #F8B806",
"]  c #FFAA1B",
"[  c #FEA713",
"{  c #EBB001",
"}  c #D99A33",
"|  c #CCB221",
" . c #FFAC27",
".. c #FFB436",
"X. c #FFB63D",
"o. c #FFB83D",
"O. c #C3C003",
"+. c #D7D502",
"@. c #DCDB02",
"#. c #DCD606",
"$. c #DDCD02",
"%. c #FEC401",
"&. c #FFCA00",
"*. c #FCC70F",
"=. c #E9D504",
"-. c #E0DB02",
";. c #FADD02",
":. c #FFC21D",
">. c #FFDB18",
",. c #EAE401",
"<. c #EDE901",
"1. c #FEE400",
"2. c #FEEC01",
"3. c #FEE108",
"4. c #FFF300",
"5. c #FFE313",
"6. c #FFE812",
"7. c #FEF91B",
"8. c #FFCF20",
"9. c #FFFC3B",
"0. c #FFF52D",
"q. c #DCA344",
"w. c #D6AB54",
"e. c #FFB945",
"r. c #FFBC4D",
"t. c #F5BA4B",
"y. c #FFBD53",
"u. c #E4B569",
"i. c #EBBB6C",
"p. c #D7D650",
"a. c #FFC24F",
"s. c #FFC35B",
"d. c #FFCA51",
"f. c #FFEC4B",
"g. c #FFF74B",
"h. c #FFF95E",
"j. c #FFEA57",
"k. c #FCC363",
"l. c #FEC76D",
"z. c #FFCB6C",
"x. c #FFCA74",
"c. c #FFCC79",
"v. c #F3C87F",
"b. c #FFD56C",
"n. c #FFF96A",
"m. c #FFEA7F",
"M. c #FFFC72",
"N. c #7C7B85",
"B. c #A49582",
"V. c #B2A795",
"C. c #B3A9A1",
"Z. c #D8B682",
"A. c #F9CE89",
"S. c #FFD283",
"D. c #FFD48C",
"F. c #FFD888",
"G. c #EFCE97",
"H. c #FED694",
"J. c #FDD69A",
"K. c #FFDA9B",
"L. c #FFD897",
"P. c #EDC88C",
"I. c #FFE886",
"U. c #FFFF84",
"Y. c #FFFF8B",
"T. c #FFE595",
"R. c #FFFF98",
"E. c #FFF597",
"W. c #DCD4B5",
"Q. c #FFDDA3",
"!. c #FEDEAA",
"~. c #E9D4B3",
"^. c #EED1A3",
"/. c #FFE1AF",
"(. c #FFE8A7",
"). c #FFFCA3",
"_. c #FFFEA9",
"`. c #F9E1BA",
"'. c #FFF3BA",
"]. c #C3C0C0",
"[. c #DEDDDF",
"{. c #FAE4C1",
"}. c #FFE8C1",
"|. c #FFF3C1",
" X c #FCECD7",
".X c #FFFFD7",
"XX c #FFF1DD",
"oX c #FFFFDC",
"OX c #FFF0D6",
"+X c #DDDCE1",
"@X c #FFEFE2",
"#X c #FFF5E4",
"$X c #FFFCE5",
"%X c #FEF6E9",
"&X c #FFFCEB",
"*X c #FFFEFC",
"=X c #FFF9F1",
/* pixels */
"                                                                                                                                ",
"                                                                                                                                ",
"                                                                                                                                ",
"                                                                                                                                ",
"                                                                                                                                ",
"                                                                                                                                ",
"                                                                                                                                ",
"                                                                                                                                ",
"                                                                                                                                ",
"                                                                                                                                ",
"                                                                                                                                ",
"                                                                                                                                ",
"                                                                                                                                ",
"                                                      o o O o o % & % & o                                                       ",
"                                                      2 2 2 4 2 2 2 2 2 2                                                       ",
"                                                X % 1 a S S S S D S F S a 1 . +                                                 ",
"                                              - $ $ 0 D -.<.<.,.,.,.,.-.F 0 * * ,                                               ",
"                                            w y u u m ~ ;.2.1.1.1.1.1.;.| A z z z j                                             ",
"                                        o 2 p O.@.@.+.' _ / _ / / _ / ' a.W.[.[.].A 5 .                                         ",
"                                        4 t D =.4.2.1.` ^ W W W W ^ ] X.D.%X*X$XW.V.l 6                                         ",
"                                    o 4 p G ! %.&.&.` / W W W W W W y.Q.OX*X$XK.i.Z.C.N.h @                                     ",
"                                    2 t G ;.&./ W W ^ ^ W ^ ^ ( [ e.Q.%X*X#X/.k.e.S.{.V.j ;                                     ",
"                                  w p S ! &.` ^ W W W W ^ _ %.>.d.H.@X*XXXD.x.c.S.D.D.w.C e 7                                   ",
"                                - y ~ -.%./ / ^ W ^ W W ^ %.2.g.E.#X*X=X!.e.r.J.{.A...Q Z n 8 =                                 ",
"                              o - u @.4.&.W W W W W ^ _ %.>.h.R.oX*X{.^.P.k.x.H.L.y.( R U N 8 = O                               ",
"                              o - u @.2.&.W W W W W / &.6.g.).$X*X%XP.w.u.^.!.x...] ^ R K N 8 = O                               ",
"                              % - u @.2.&.W W W ^ / ` 5.9.U.$X*X%X{.u.q.u.`.!.r.^ W ^ R K M 8 = &                               ",
"                              o - u +.2.%.W W W _ &.>.h.).oX*X XH.y.P.G.G.l.r.] W ^ W R K M 8 = O                               ",
"                              o - u @.2.&.W W W %.6.9.).&X*X%XQ.s.e.J.{.H. .( ^ ^ ^ W R K N 8 = O                               ",
"                              % - u +.2.&.^ W W :.f.U.oX*X#XJ.S.l.x.P.G.i.( W W W ^ ^ Y K N 8 = &                               ",
"                              o - u @.2.%.^ W W a.(.$X*X#XJ.e.s.Q.{.i.} Q E ^ W W ^ ^ R K M 8 = O                               ",
"                              % - u @.2.%.^  .e.J.#X*X.X).I.s.l.L.^.q.P K E ^ ^ ^ ^ ^ R K M 8 = &                               ",
"                              o - u #.2.%.[ y.J.@X*X&XY.n.n.(.L.c.e.I J K E W W W ^ ^ R K M 8 = &                               ",
"                              o - u +.2.*.X.H.#X*X$X'.h.9.M.'.K.e.E U J K E W ^ W ^ W R K M 8 = O                               ",
"                              % - i @.7.j.(.XX*X XS.z.m.E.I.c.e.] E L J L E ^ ^ ^ ^ W R K M 8 = &                               ",
"                              o = u #.9.R.#X*X=XQ.y.e.T.|.T...( ^ E U J L E W ^ W ^ ^ R L M 8 $ O                               ",
"                              o - g p.U..X*XXX!.c.l.z.T.E.b.( W ^ W L J L E W ^ ^ ^ W R K M 8 = O                               ",
"                              . , l W.&X*X#XD.e.k./.'.n.0.>./ W W E U J U E ^ ^ W ^ ^ R K N 8 = &                               ",
"                              . , z [.*X$X/.c.r.x.!.(.g.3.&.) R R Y U K U W W ^ ^ ^ W R L N 8 = O                               ",
"                              . , z [.$XL.k.c.L.H.x.a.:.%.) U K L L U Y R W W ^ W ^ ^ E U N 8 = O                               ",
"                                , z ].~.k.e.c.}.L...W W W Y K J J K Y W W ^ W ^ W ^ E U Z M 8 #                                 ",
"                                  j x B.Z.S.D.S.y.] W W W R U U U Y R W ^ ^ ^ ^ ^ E R B v q 3                                   ",
"                                    5 k C.{.F...( ^ ^ ^ W W W E E W W ^ W ^ W ^ W Y J b 8 ;                                     ",
"                                    . 6 N.V.w.*.&.%.%./ W W ^ ^ ^ ^ ^ ^ W E R R U B b q > &                                     ",
"                                        h l H =.4.4.1.` ^ W ^ ^ ^ ^ ^ W R L K U Z v 8 >                                         ",
"                                        % 2 S G @.@.$.{ W E E E E E W E K B N M n e ; &                                         ",
"                                            0 t u u v D L Y U U U U Y L M e 8 8 8 7                                             ",
"                                              $ - - 3 v V B Z B B B Z V v 3 # # #                                               ",
"                                                X X : 9 r c r r r r c r q : O o                                                 ",
"                                                      > > > ; > > > > ; ;                                                       ",
"                                                      @ @ @ @ @ @ @ @ @ @                                                       ",
"                                                                                                                                ",
"                                                                                                                                ",
"                                                                                                                                ",
"                                                                                                                                ",
"                                                                                                                                ",
"                                                                                                                                ",
"                                                                                                                                ",
"                                                                                                                                ",
"                                                                                                                                ",
"                                                                                                                                ",
"                                                                                                                                ",
"                                                                                                                                ",
"                                                                                                                                "
};
