/* XPM */
static char *coin31703350783[] = {
/* columns rows colors chars-per-pixel */
"64 64 101 2 ",
"   c None",
".  c #0C030F",
"X  c #0F080F",
"o  c #140C0E",
"O  c #190F0E",
"+  c #1A110E",
"@  c #0C0411",
"#  c #0F0911",
"$  c #1D1211",
"%  c #22150E",
"&  c #251C0E",
"*  c #2C1B0D",
"=  c #321D0D",
"-  c #2D270C",
";  c #3D250B",
":  c #322A0D",
">  c #3F290B",
",  c #36300E",
"<  c #3B320D",
"1  c #462B0A",
"2  c #492D0B",
"3  c #46330B",
"4  c #543409",
"5  c #583609",
"6  c #543809",
"7  c #47410B",
"8  c #4C440B",
"9  c #4D480A",
"0  c #544C0A",
"q  c #56520B",
"w  c #59520B",
"e  c #6B4208",
"r  c #714707",
"t  c #774906",
"y  c #7C4D07",
"u  c #635E09",
"i  c #666109",
"p  c #696309",
"a  c #7E6308",
"s  c #804F05",
"d  c #825306",
"f  c #935B05",
"g  c #995F04",
"h  c #8B6D05",
"j  c #9D6304",
"k  c #817608",
"l  c #A46604",
"z  c #A96903",
"x  c #B77202",
"c  c #BE7601",
"v  c #B17A04",
"b  c #C07701",
"n  c #C27901",
"m  c #CB7E00",
"M  c #8B8607",
"N  c #928B06",
"B  c #969107",
"V  c #9C9606",
"C  c #BC8703",
"Z  c #BBA504",
"A  c #B3AE05",
"S  c #B6B105",
"D  c #B9B405",
"F  c #BFBD04",
"G  c #CF8100",
"H  c #C18902",
"J  c #D48300",
"K  c #DA8702",
"L  c #D58D01",
"P  c #DC8901",
"I  c #C39103",
"U  c #CF9F01",
"Y  c #D99400",
"T  c #E48E00",
"R  c #E69000",
"E  c #EA9200",
"W  c #E69C00",
"Q  c #F39700",
"!  c #FB9E00",
"~  c #D0AF01",
"^  c #C3B103",
"/  c #F5A600",
"(  c #F6A900",
")  c #FAAA00",
"_  c #EEB600",
"`  c #E5BC01",
"'  c #F6B500",
"]  c #D7CA03",
"[  c #DBCC02",
"{  c #D2D003",
"}  c #DEDB02",
"|  c #E6C201",
" . c #E8C501",
".. c #E1CE01",
"X. c #F4C400",
"o. c #FDCC00",
"O. c #E0D701",
"+. c #E9D501",
"@. c #EEDA01",
"#. c #F1DD01",
"$. c #F6EF00",
/* pixels */
"                                                                                                                                ",
"                                                                                                                                ",
"                                                                                                                                ",
"                                                                                                                                ",
"                                                                                                                                ",
"                                                                                                                                ",
"                                                                                                                                ",
"                                                                                                                                ",
"                                                                                                                                ",
"                                                                                                                                ",
"                                                                                                                                ",
"                                                                                                                                ",
"                                                                                                                                ",
"                                                            @ . . . .                                                           ",
"                                                            - : : : -                                                           ",
"                                                          < q i p i w <                                                         ",
"                                                        $ 8 M F { { M 8 $                                                       ",
"                                                        + 9 V } $.[ N 8 +                                                       ",
"                                                        + 9 V O.+.~ h 3 +                                                       ",
"                                                        + 9 B [  .H y > O                                                       ",
"                                                        o 6 B ] | C y ; o                                                       ",
"                                                        & 0 V [ ` C d 1 %                                                       ",
"                                                      , 9 k Z | _ L l e 1 *                                                     ",
"                                                    & q B ^ ` ' ( E m l t 2 %                                                   ",
"                                                  . & i A +.o.) / Q T n f 4 % X                                                 ",
"                                                  @ & p D #.o.) Q E T m g 4 % #                                                 ",
"                                                  @ - u S #.o.) E T m m g 4 % #                                                 ",
"                                                  @ & i S @.o.( T K m n f 5 % X                                                 ",
"                                                  . & u A #.o.( T J G b f 4 % @                                                 ",
"                                                  . & u A @.o.( R J J b f 4 % .                                                 ",
"                                                  @ & u A @.o.( R K G c f 2 % #                                                 ",
"                                                  . & u A @.o.( R J G c f 4 % o                                                 ",
"                                                  @ & u S @.o.( T K G c f 4 + X                                                 ",
"                                                  @ & u A @.o.( R J G b f 4 % .                                                 ",
"                                                  . & u S @.o.( R J J c f 4 % o                                                 ",
"                                                  . & u A @.o.( R K G b f 4 % .                                                 ",
"                                                  @ & i S @.o.( R J J b f 4 + o                                                 ",
"                                                  . & i S @.o.( R J G b f 4 % @                                                 ",
"                                                  @ & i D @.X./ T J J b f 6 % #                                                 ",
"                                                  @ - p D @.X.W K J J n g 5 % #                                                 ",
"                                                  @ & i A [ ` Y J m m c f 4 % #                                                 ",
"                                                    & w N Z U L J n x j t 2 %                                                   ",
"                                                      , 0 a v K P n g e 1 =                                                     ",
"                                                        & 6 j K T b d 1 %                                                       ",
"                                                        o 2 f K R b t ; o                                                       ",
"                                                        O 2 f K T b y ; O                                                       ",
"                                                        O 2 f G T b s 1 O                                                       ",
"                                                        $ 1 d c m x s 1 O                                                       ",
"                                                        $ > r g z g r > $                                                       ",
"                                                          = 2 4 5 6 1 =                                                         ",
"                                                            * * * * *                                                           ",
"                                                            . X o . #                                                           ",
"                                                                                                                                ",
"                                                                                                                                ",
"                                                                                                                                ",
"                                                                                                                                ",
"                                                                                                                                ",
"                                                                                                                                ",
"                                                                                                                                ",
"                                                                                                                                ",
"                                                                                                                                ",
"                                                                                                                                ",
"                                                                                                                                ",
"                                                                                                                                "
};
