/* XPM */
static char *Screen_Shot_2023_12_22_at_6_47_51_PM_removebg_preview_7_03_43_PM1703347215[] = {
/* columns rows colors chars-per-pixel */
"64 64 129 2 ",
"   c None",
".  c #1E1D1F",
"X  c #201E1F",
"o  c #1F1E20",
"O  c #211E21",
"+  c #252323",
"@  c #282424",
"#  c #342B25",
"$  c #3F2F25",
"%  c #3F3024",
"&  c #403124",
"*  c #4F3827",
"=  c #45352A",
"-  c #543720",
";  c #5D3E23",
":  c #6D421C",
">  c #71441E",
",  c #5A4029",
"<  c #5F4632",
"1  c #654529",
"2  c #6B4829",
"3  c #734621",
"4  c #754922",
"5  c #7B4C23",
"6  c #724D2B",
"7  c #794F2B",
"8  c #7E5027",
"9  c #77502C",
"0  c #78502C",
"q  c #624731",
"w  c #634833",
"e  c #825229",
"r  c #89572C",
"t  c #8F5B29",
"y  c #905C2A",
"u  c #945F32",
"i  c #9B642E",
"p  c #966234",
"a  c #9B6532",
"s  c #996639",
"d  c #A9752F",
"f  c #A06731",
"g  c #A56C33",
"h  c #AA6F35",
"j  c #A76E38",
"k  c #A6703D",
"l  c #AD773E",
"z  c #AE783F",
"x  c #AD7741",
"c  c #A67A4E",
"v  c #B17946",
"b  c #B17948",
"n  c #AD7F52",
"m  c #EADC2F",
"M  c #FCF92B",
"N  c #FAF03F",
"B  c #AB8055",
"V  c #B38453",
"C  c #BB8A55",
"Z  c #BA8C5B",
"A  c #BE905C",
"S  c #C09F43",
"D  c #C59C4C",
"F  c #C1945F",
"G  c #D4B954",
"H  c #C19460",
"J  c #C69B6D",
"K  c #DDBC64",
"L  c #CDA272",
"P  c #D1A370",
"I  c #D6A976",
"U  c #D8AA76",
"Y  c #D5AA78",
"T  c #D8AD7A",
"R  c #E4C76A",
"E  c #EECD7B",
"W  c #5D749C",
"Q  c #6D788D",
"!  c #7C7F8E",
"~  c #647492",
"^  c #697792",
"/  c #6C7991",
"(  c #63789F",
")  c #637AA0",
"_  c #637CB0",
"`  c #6682BB",
"'  c #7F94BF",
"]  c #6C8BCD",
"[  c #708BC2",
"{  c #708DCC",
"}  c #7891C4",
"|  c #7290D1",
" . c #7397E3",
".. c #7799E2",
"X. c #7B9CE4",
"o. c #7A9EED",
"O. c #AB9E91",
"+. c #B5A28F",
"@. c #B0A090",
"#. c #C9A783",
"$. c #CDAA85",
"%. c #DFB682",
"&. c #D5B58F",
"*. c #DBB78D",
"=. c #C9AF90",
"-. c #CEB190",
";. c #D5B590",
":. c #DFBB90",
">. c #E1B783",
",. c #E3B984",
"<. c #E5BB89",
"1. c #E9BE8C",
"2. c #EDC784",
"3. c #EBC18D",
"4. c #849AC5",
"5. c #839DD2",
"6. c #889FD1",
"7. c #8AA4D7",
"8. c #82A4ED",
"9. c #87A9EF",
"0. c #97B1E7",
"q. c #9DB4E9",
"w. c #85A7F2",
"e. c #8BABF1",
"r. c #97B4F5",
"t. c #9AB5F4",
"y. c #A2B8EA",
"u. c #A2BCF4",
"i. c #AAC2F6",
/* pixels */
"                                                                                                                                ",
"                                                                                                                                ",
"                                                                                                                                ",
"                                                                                                                                ",
"                                                                                                                                ",
"                                                                                                                                ",
"                                                                                                                                ",
"                                                                                                                                ",
"                                                                                                                                ",
"                                        o o o o o o o O o o o o . . o o o o . O o . X O                                         ",
"                                      # < w w w , < q ; ; < ; ; , , , , ; , , ; , , $ +                                         ",
"                                      = b b v x f j x a i a f i i i f i i f a f i f 1 .                                         ",
"                                      = v r 3 3 3 3 3 > : > > > > > > > > > > > > f 1 X                                         ",
"                                      = b e : 7 5 7 5 e e 7 5 e 5 e e 7 5 5 7 5 > i 2 X                                         ",
"                                      = b e 4 u s s s s s s s s s s p s s s u r : i 1 X                                         ",
"                                      = v e 3 u c n n n n n n B n n B B n n s e : i 1 X                                         ",
"                                      = v e > f V J I Y Y Y Y Y Y Y Y Y L Z k r : i 1 O                                         ",
"                                      = x 7 5 h C U 1.-.=.=.=.=.=.=.=.:.,.F l y : i 1 O                                         ",
"                                      & i 5 5 g C U ;.Q ~ ~ ~ ~ ~ ~ ~ @.,.F l t : i 1 +                                         ",
"                                      & a 5 8 g C U ;.^ } 7.| 7.5.] W @.,.F l y : i 1 O                                         ",
"                                      % i 8 > d C U &.^ 5.r.9.r.e.o.W O.>.F l t : i 1 .                                         ",
"                                      & a > 5 h C U ;.^ { e.u.w.o.| W O.,.F l t : i 1 .                                         ",
"                                      & i 5 5 h C U ;.^ 6.t.w.o.w.0.) O.,.F l y : i 1 X                                         ",
"                                      & a 5 5 g C U ;.Q 5.e.o.e.t.y.) O.,.F x y : i 1 X                                         ",
"                                      % a > e g C U *.~ ] o.8.u.i.q.( O.>.F l t : i 1 X                                         ",
"                                      % i 8 5 d C U *.~ ] w.u.u.t.X.W O.>.H l t : i 1 X                                         ",
"                                      & i > > g F U &.^ _ [ 4.4.} ` W O.,.H l t : i 1 O                                         ",
"                                      & g > e g V K T ` Q Q Q / Q Q Q +.>.H x t : i 1 O                                         ",
"                                      & a 5 e d D P 1.$.$.Y #.#.#.#.$.*.>.F l y : i 1 O                                         ",
"                                      % a > > f C P 1.,.,.,.<.1.<.,.,.3.>.F l t : i 1 .                                         ",
"                                      & a 8 8 d D K E 1.1.3.3.3.3.3.3.3.>.F l t : i 1 O                                         ",
"                                      & f > 8 d m M N 1.1.3.3.3.3.3.3.3.>.F x t : i 1 O                                         ",
"                                      & i 8 5 g C G R 2.3.3.3.3.3.3.3.3.>.H l y : i 1 O                                         ",
"                                      % a > 5 g V J %.3.3.3.3.3.3.3.3.3.>.H l t : i 1 .                                         ",
"                                      % i 5 5 g C I 3.3.3.3.3.3.3.3.3.3.,.A l t : i 1 O                                         ",
"                                      % a 5 5 g C I 3.1.3.3.3.3.3.3.3.3.>.F x t : a 1 O                                         ",
"                                      & a 5 5 g C I 2.3.3.3.3.1.3.3.3.3.>.F l t : a 1 O                                         ",
"                                      % a 5 5 d C I 3.3.3.3.3.3.3.3.3.3.>.F l t : i 1 O                                         ",
"                                      % i 5 5 g C I 3.3.3.3.3.3.3.3.3.3.>.F l t : i 1 O                                         ",
"                                      & i > 8 g C Y 3.3.3.3.3.3.3.3.3.3.>.H x t : i 1 O                                         ",
"                                      & a > 8 d C U 3.3.3.3.3.3.3.3.3.3.>.F l t : i 1 O                                         ",
"                                      & a 8 > g C U 3.3.3.3.3.3.3.3.3.3.>.F l t : i 1 O                                         ",
"                                      % a 5 8 d C U 3.3.3.3.3.3.3.3.3.3.,.F x t : i 1 O                                         ",
"                                      & a > 5 g C T 3.3.3.3.3.3.3.3.3.3.>.F l t : i 1 O                                         ",
"                                      & a e e g C U 3.3.3.3.3.3.3.3.3.3.>.F l t : i 1 X                                         ",
"                                      & a > > g C U 3.3.3.3.3.3.3.3.3.3.>.H l y : i 1 X                                         ",
"                                      & f > e d C P ,.T ,.>.T ,.%.%.%.%.T F l t : i , X                                         ",
"                                      & i > e f C H H F F F F F F F F F F A l y : i 1 X                                         ",
"                                      & a > e g d l l z l l l z l l l v z l h y : i 1 O                                         ",
"                                      # 6 1 , 0 7 7 0 0 7 0 0 0 0 0 0 0 0 0 0 2 - 6 * X                                         ",
"                                    + @ + @ @ @ @ @ @ @ @ @ @ @ + + @ @ @ @ @ @ @ @ @ @                                         ",
"                                                                                                                                ",
"                                                                                                                                ",
"                                                                                                                                ",
"                                                                                                                                ",
"                                                                                                                                ",
"                                                                                                                                ",
"                                                                                                                                ",
"                                                                                                                                ",
"                                                                                                                                ",
"                                                                                                                                ",
"                                                                                                                                ",
"                                                                                                                                ",
"                                                                                                                                "
};
