/* XPM */
static char *Screen_Shot_2023_12_22_at_6_59_03_PM_removebg_preview_7_03_43_PM1703347215[] = {
/* columns rows colors chars-per-pixel */
"64 64 147 2 ",
"   c None",
".  c #171717",
"X  c #171818",
"o  c #1A1A1A",
"O  c #211F1F",
"+  c #23201F",
"@  c #2C231F",
"#  c #221F20",
"$  c #232222",
"%  c #292422",
"&  c #2A2826",
"*  c #2E2E2E",
"=  c #342A24",
"-  c #3C2C21",
";  c #2F302F",
":  c #2F3030",
">  c #333333",
",  c #3D3935",
"<  c #3A3939",
"1  c #4D351F",
"2  c #5A3516",
"3  c #5B3619",
"4  c #5E3B1C",
"5  c #55371C",
"6  c #613D1D",
"7  c #6C3F1A",
"8  c #4E3521",
"9  c #4E3826",
"0  c #49382B",
"q  c #5D3D23",
"w  c #573F2A",
"e  c #563D26",
"r  c #413A34",
"t  c #603E20",
"y  c #6C401B",
"u  c #75461E",
"i  c #76481F",
"p  c #5C422B",
"a  c #544030",
"s  c #62462B",
"d  c #6C4A2B",
"f  c #694323",
"g  c #754720",
"h  c #774A21",
"j  c #794B23",
"k  c #734E2A",
"l  c #784F2B",
"z  c #77502B",
"x  c #7B532D",
"c  c #644833",
"v  c #7B5532",
"b  c #695441",
"n  c #7E5D40",
"m  c #79726C",
"M  c #865527",
"N  c #885527",
"B  c #82572D",
"V  c #885628",
"C  c #82582E",
"Z  c #8B592B",
"A  c #935E2C",
"S  c #825933",
"D  c #825B3A",
"F  c #95622F",
"G  c #9A642D",
"H  c #8A613D",
"J  c #966331",
"K  c #996531",
"L  c #916438",
"P  c #9F6C39",
"I  c #A4692F",
"U  c #AD782E",
"Y  c #AC762C",
"T  c #A46B31",
"R  c #A86E34",
"E  c #AA6F38",
"W  c #A77034",
"Q  c #A87036",
"!  c #AA723A",
"~  c #976C42",
"^  c #A17644",
"/  c #B67B46",
"(  c #B77E48",
")  c #B87E49",
"_  c #EADD2D",
"`  c #E3D032",
"'  c #FCF82F",
"]  c #FAF52D",
"[  c #F2E833",
"{  c #F9F03C",
"}  c #B5814B",
"|  c #BE814B",
" . c #B88550",
".. c #BB8B56",
"X. c #B78E5B",
"o. c #B98F5C",
"O. c #BA905D",
"+. c #938477",
"@. c #C1974F",
"#. c #CFAA5D",
"$. c #C29662",
"%. c #C69A67",
"&. c #C89C67",
"*. c #C79D68",
"=. c #C99C69",
"-. c #CCA06C",
";. c #CAA063",
":. c #DAAF7A",
">. c #DBB07C",
",. c #F8E84F",
"<. c #F5E258",
"1. c #EAC879",
"2. c #5F708F",
"3. c #5A6E93",
"4. c #5D7091",
"5. c #6E87BD",
"6. c #6B86C1",
"7. c #6D8CCD",
"8. c #718ECA",
"9. c #779CEC",
"0. c #7B9DEB",
"q. c #929293",
"w. c #A4988F",
"e. c #A39791",
"r. c #AF9F91",
"t. c #B6A38F",
"y. c #B8A48E",
"u. c #B6A390",
"i. c #B5ADAA",
"p. c #B5AAA4",
"a. c #BBB3B8",
"s. c #C1A98F",
"d. c #CDB18F",
"f. c #D6B58F",
"g. c #DCB88D",
"h. c #C0A890",
"j. c #C5B19E",
"k. c #D6B590",
"l. c #E4B985",
"z. c #EABF87",
"x. c #E7BE8A",
"c. c #E9BE8A",
"v. c #C7B2A2",
"b. c #C8B8AA",
"n. c #EDC882",
"m. c #EBC18D",
"M. c #E9C184",
/* pixels */
"                                                                                                                                ",
"                                                                                                                                ",
"                                                                                                                                ",
"                                                                                                                                ",
"                                                                                                                                ",
"                                                                                              % # $ # O $ $ &                   ",
"                      & %                   & & &                           &         & & & & s c d d d w % &                   ",
"                      # $ $ % $ # % $ $ % $ # $ % $ $ + % + % % O $ % + % O $ $     $ % % # % B E R T I B % %                   ",
"                      $ c D D L H D x S H D z x x x x z x x x x x x x x v l q 1 & 0 x x x x x K T R T R S $ &                   ",
"                      + D @./ / / / T ! / ! I T T T I T I T I I I I I I T G u 3 @ 9 T R T T T T R R T I S % $                   ",
"                      O D ) Z j j j i i j g u u y h i i i i h i u u u u g g M V l Z I T I I I /  .X.} R B % $                   ",
"                      $ D / M t 6 q 4 f t t t q q q 4 4 q q t p t t 6 t 7 7 Z A A K R ! E E E ..%.$...R S % %                   ",
"                      O D ) l t r , , , r , , , , r , , < < < < , , r r t t Z A A P $.....$.$.:.l.=.X.R C % %                   ",
"                      % D ) M t , < < < < < < < < < < < < < < < < < < < b H Z F K ^ =.=.=.&.-.l.c.&...R C % $                   ",
"                      # D ) j t , < < < < < < < < < < < < < < < < < > < q.i.~ F ^ X.c.c.c.c.m.m.c.&...R B $ %                   ",
"                      # D / j 6 , < < < : : ; ; ; ; ; ; : : > > > < < < m +.L J ^ X.c.k.u.u.y.l.c.&...R v % $                   ",
"                      # D ) x 6 r < < > # O O O $ $ $ $ $ $ $ $ * < < < 8 2 N F ^ o.m.r.3.2.2.s.c.=...R B $ $                   ",
"                      $ v ! j 6 r < < > $ $ $ $ $ $ $ $ $ $ $ $ * < < < 8 3 V J ^ O.m.p.5.6.5.j.c.=...Q S % &                   ",
"                      $ l T h t r < < > $ $ $ O $ $ $ $ o $ $ $ * > < , 8 2 N F ^ X.m.a.0.9.0.b.M.&...R B $ %                   ",
"                      + z T h t r > * & $ $ $ $ $ $ $ $ $ $ $ $ % * > < 8 3 V J ^ O.c.a.0.9.0.b.c.*...R S % $                   ",
"                      + z T i 6 < > $ $ $ $ O $ O $ O O $ O & $ O O * < 1 2 N F ^ X.m.a.9.9.0.b.M.=...E B $ $                   ",
"                      $ d I i 6 < > $ $ $ $ $ X X X X X o $ $ $ O $ * < 1 2 N F ^ X.m.a.9.9.0.b.c.&...R B % %                   ",
"                      + z I j 6 < < $ $ $ $ $ X X X X X X $ $ $ $ $ : < 8 3 B J ^ O.M.a.9.9.0.b.z.=...R B % $                   ",
"                      + z T i 6 r > $ $ $ o X X X X X X X X o $ $ O ; < 8 3 V J ^ O.c.a.0.0.0.b.M.&...R B $ $                   ",
"                      % z K j 6 r < $ $ $ $ X X X X X X . . X $ $ $ : < 9 5 N F ^ O.m.a.9.9.0.b.M.=...R v % %                   ",
"                      + z I j 6 , > $ $ $ o . X X X X X X X o $ $ $ * < 1 5 M G ^ X.c.a.9.9.0.b.c.=...R B % $                   ",
"                      + k I h 4 , > $ $ O o . . . . . . . X o $ O $ * < 1 2 N G ^ o.m.i.7.7.7.v.c.=...R B $ $                   ",
"                      + k T h 6 , > $ $ O X . . . . . . . X o $ $ O * < 1 2 M F ^ o.m.r.3.3.4.h.c.=...R B % %                   ",
"                      $ k T h q r < & $ $ O X X X . . . . X O $ $ $ ; < 8 2 M J ^ O.m.d.e.e.w.k.m.&...Q B % $                   ",
"                      + k I h 4 , > $ $ $ o X X . . . . . . o $ $ + ; < 1 2 V J ^ O.m.m.m.m.m.m.c.&...W B $ $                   ",
"                      $ z T h y , > $ $ $ $ X X . X X X X X o $ $ $ ; < 8 2 V J ^ O.m.m.m.m.m.m.c.&...Q S % %                   ",
"                      + k I h 4 , > $ $ $ o X X . . . . . . o + O $ ; < 8 2 V G ^ O.m.m.m.m.m.M.z.#...R B $ $                   ",
"                      + k T i 6 , > $ $ O o . . . . . . . . o $ $ $ * < 1 2 N F ^ O.m.m.m.m.m.<.{ [ ` U B % $                   ",
"                      + k T j 6 r > $ & $ o . . X X . . . X o $ $ $ ; < 1 5 M F ^ O.m.m.m.m.m.,.' ' _ U B % %                   ",
"                      + k T h 6 r < $ $ $ o . X . o X . X . o $ $ $ * < 1 2 M K ^ O.m.m.m.m.m.m.1.#.X.U S $ $                   ",
"                      + k T h 6 < > $ $ $ o X X o . . . X . o $ $ $ ; < 1 5 V J ^ O.m.m.m.m.m.m.M.;.X.W v % &                   ",
"                      $ k T i 6 , > $ $ $ o . X . . . . . . o $ $ + ; < 1 2 V G ^ X.g.m.m.m.m.m.x.*...R B % $                   ",
"                      + d T i 6 , > $ $ $ o X X . . . . . . o $ O + * < 8 2 M F ^ O.m.m.m.m.m.m.x.*...R B % $                   ",
"                      + z T h 6 , > $ $ $ o . . . . . . . . o $ $ O ; < 1 2 M J ^ O.m.m.m.m.m.m.x.*...R B % %                   ",
"                      + z T h 6 , < & $ $ O . o X o . . o X o $ $ $ > < 8 2 V J ^ O.m.m.m.m.m.m.x.*.X.R B % %                   ",
"                      + z W h 6 , > $ $ $ o X X X . . . . . o $ $ $ : < 8 2 V K ^ O.m.m.m.m.m.m.c.%...R B %                     ",
"                      $ z T h 6 , > $ $ $ o X X X X . . . . o $ $ $ : < 8 2 V F ^ O.m.m.m.m.m.m.c.%.@.E S %                     ",
"                      + k T h 6 , > $ $ $ o X X . . . . . . o + $ O ; < 1 2 V F ^ X.m.m.m.m.m.m.c.=...R B $                     ",
"                      + k G h 6 a : $ $ $ X X X . . . . . . o + $ O ; < 1 2 M F ^ X.m.m.m.m.m.m.c.=...R B +                     ",
"                      + k I j 6 < > $ $ $ o X X . X X X X X o $ $ $ ; < 9 5 V F ^ X.m.m.m.m.m.m.c.=...E C %                     ",
"                      $ k W h 6 < > & $ $ o X X X o X X X X o $ $ $ ; < 1 2 V F ^ X.m.m.m.m.m.m.c.=...R C %                     ",
"                      O k T h 6 r < $ $ $ o X X X X . X X X o $ O $ ; < 1 2 N F ^ X.m.m.m.m.m.m.c.%...R B %                     ",
"                      O k T h 6 , > $ $ $ o X X X X . . . . o $ O $ ; < 1 5 N F ^ X.m.m.m.m.m.m.c.%...R C $                     ",
"                      + z T h 4 , < $ $ $ X X . . . . . . . X $ $ # * < 0 3 Z F ^ o.m.m.m.m.m.m.c.=...R B %                     ",
"                      + k I h 4 , : $ $ $ X X X . X . . X X X $ $ $ * <     A F ^ o.m.m.m.m.m.m.c.%...R B $                     ",
"                      $ k I j y r < $ & $ o o X . . . X X X o $ $ $ > < w   A J ^ O.m.m.m.m.m.m.c.=.$.I B %                     ",
"                      + k P h q < > $ $ $ o X X . . . . X X O $ O O : < q y V F ^ X.m.m.m.m.m.m.c.=...T S %                     ",
"                      $ z R i y r > $ $ $ o . X . . . . . . o $ $ $ : < q f Z J ^ O.m.m.m.m.m.m.c.%.) R B #                     ",
"                      $ k G h 4 r > $ $ $ o . . . . . . . . o $ O O : < q 7 Z G ^ X.x.m.c.m.m.m.c.=.$.R Z #                     ",
"                      $ z T h 4 r > $ $ $ o X . . X . . . . o $ $ O * < q 7 Z A K ^ =.-.-.-.-.l.c.=.$.R B %                     ",
"                      O k T h 4 < : $ $ $ o X X . X X X . X o $ $ O * < e 6 Z A A T o.o.o.o.O.>.l.%.) R B %                     ",
"                      + k T j 6 = $ $ $ $ # # # # # O # # # $ $ O $ $ & & - B A A J E ! E Q E O.&.$...R S % &                   ",
"                      O s A f 5 @ $ # % $ # # $ $ $ $ $ $ # % $ O $ $ & # & k B A G T T T T T ( .... .R S % $                   ",
"                      $ % & + @                                             % 1 V G R R T I T R R R R I x % $                   ",
"                      $ # % $ %                                               = k l x B x F I R T T I I B $ $                   ",
"                                                                                $ % + % O d R R R R I R B % $                   ",
"                                                                                          p l v d k d k p % &                   ",
"                                                                                          % # # # # O O & # $                   ",
"                                                                                                  o o o o o o                   "
};
