/* XPM */
static char *player_L1703347213[] = {
/* columns rows colors chars-per-pixel */
"64 64 174 2 ",
"   c None",
".  c #000000",
"X  c #0B0603",
"o  c #0E0905",
"O  c #05060D",
"+  c #0D0A0D",
"@  c #100503",
"#  c #120B07",
"$  c #140E09",
"%  c #190F0A",
"&  c #1B1009",
"*  c #060913",
"=  c #0A0B13",
"-  c #0C0E1A",
";  c #100E12",
":  c #131112",
">  c #1C1312",
",  c #24160D",
"<  c #25180F",
"1  c #2C190D",
"2  c #241A15",
"3  c #2D1D13",
"4  c #291D1A",
"5  c #231814",
"6  c #311E11",
"7  c #26221C",
"8  c #2B251E",
"9  c #342114",
"0  c #3B2415",
"q  c #342018",
"w  c #3D281A",
"e  c #081324",
"r  c #131826",
"t  c #151F30",
"y  c #1A2434",
"u  c #2E2922",
"i  c #272025",
"p  c #3A2B23",
"a  c #3A3127",
"s  c #2E2D37",
"d  c #3A3539",
"f  c #412717",
"g  c #422817",
"h  c #442B1A",
"j  c #492E1C",
"k  c #4C311D",
"l  c #53351E",
"z  c #402E25",
"x  c #403027",
"c  c #4F3220",
"v  c #44332A",
"b  c #4A372A",
"n  c #523621",
"m  c #563923",
"M  c #593B24",
"N  c #5D3F2A",
"B  c #55382A",
"V  c #41383C",
"C  c #503E37",
"Z  c #4F413C",
"A  c #534030",
"S  c #5B473B",
"D  c #5E4A3F",
"F  c #5A4536",
"G  c #64432C",
"H  c #68472F",
"J  c #6D4B34",
"K  c #654A3B",
"L  c #664936",
"P  c #704C36",
"I  c #714E38",
"U  c #73533C",
"Y  c #7D563E",
"T  c #182A50",
"R  c #3D3B42",
"E  c #17376F",
"W  c #1C3A6F",
"Q  c #433C41",
"!  c #2A456E",
"~  c #28447A",
"^  c #3F5174",
"/  c #4C4345",
"(  c #524542",
")  c #5F585A",
"_  c #645244",
"`  c #7E5740",
"'  c #735747",
"]  c #77604B",
"[  c #726554",
"{  c #746856",
"}  c #444B61",
"|  c #6F6D7C",
" . c #716E7A",
".. c #7B6D71",
"X. c #79717A",
"o. c #825A41",
"O. c #876149",
"+. c #966A4F",
"@. c #9A6C4F",
"#. c #886750",
"$. c #8F6A53",
"%. c #946E55",
"&. c #9A6E52",
"*. c #90785F",
"=. c #9D7459",
"-. c #A8775A",
";. c #AC7A5C",
":. c #A77659",
">. c #B07D5F",
",. c #947D66",
"<. c #9F7B6A",
"1. c #9E7864",
"2. c #AA7F63",
"3. c #B17F60",
"4. c #96846E",
"5. c #9C856D",
"6. c #86817F",
"7. c #998873",
"8. c #A1866C",
"9. c #A78468",
"0. c #B18364",
"q. c #B28768",
"w. c #B4896B",
"e. c #A28E76",
"r. c #AC9476",
"t. c #A59179",
"y. c #AA957B",
"u. c #B49275",
"i. c #BC9779",
"p. c #BB9A7C",
"a. c #1D4582",
"s. c #274E89",
"d. c #28528F",
"f. c #32558D",
"g. c #265097",
"h. c #355B95",
"j. c #355A95",
"k. c #2252A0",
"l. c #275FB2",
"z. c #2966BB",
"x. c #2966BA",
"c. c #455F8C",
"v. c #415E92",
"b. c #45618E",
"n. c #626880",
"m. c #747B8E",
"M. c #777F9A",
"N. c #416FB4",
"B. c #4A77B9",
"V. c #4774B6",
"C. c #857D8A",
"Z. c #7B829C",
"A. c #6E82A7",
"S. c #8A868D",
"D. c #9B938A",
"F. c #81879F",
"G. c #898A98",
"H. c #BEA184",
"J. c #BAA589",
"K. c #B7A287",
"L. c #8088A1",
"P. c #8E93A6",
"I. c #9399AC",
"U. c #8A9BB9",
"Y. c #8092B2",
"T. c #A1A5B4",
"R. c #A8ABB8",
"E. c #C1A587",
"W. c #C1A789",
"Q. c #C4AB8E",
"!. c #C2AE91",
"~. c #C5B093",
"^. c #CAB496",
"/. c #CEB899",
/* pixels */
"                                                                                                                                ",
"                                                                                                                                ",
"                                                                                                                                ",
"                                                                                                                                ",
"                                                                                                                                ",
"                                                                                                                                ",
"                                                                                                                                ",
"                                                                                                                                ",
"                                                                                                                                ",
"                                                                                                                                ",
"                                                                                                                                ",
"                                                                                                                                ",
"                                                            . . . .     . . . . . . . .                                         ",
"                                                            . . o $     o # $ % % # . .                                         ",
"                                                    . . . . . o 9 9 $ X < 9 w j h 9 o .                                         ",
"                                                    # % $ # o , k j > & 9 k m l k 9 + .                                         ",
"                                                . # 9 h h w 9 0 k l 0 9 j m M k < o . .                                         ",
"                                                # 5 k M M n k k m l k k n M M j < # # o                                         ",
"                                            . # 9 k n M M m n n m l l l m m M l h w 9 , X .                                     ",
"                                            # < j M M m M m M M A m A m m m m M m m k 0 & o                                     ",
"                                        . # 9 k n M M m m m M m l l l G m m m m m m m k 0 , o .                                 ",
"                                        . $ h M M m m m n l n n l G m l m m m n m M m n h 6 @ .                                 ",
"                                        . $ w M m m m n h h h j l M m m m n j k n M M n j 6 o .                                 ",
"                                        o > j M n m G H N n h h l l A m m n h h k l n k h 3 o .                                 ",
"                                    . o 1 0 k n j m o.&.+.` c f l G m m M n h w h h h h h 1 # .                                 ",
"                                    . o 6 h l n m P &.3.3.&.P B l k m M M n h 0 0 f h h h 6 o .                                 ",
"                                    . o 6 g h M o.&.-.;.3.-.&.o.n h l M m n h 0 0 h k k h 6 @ .                                 ",
"                                    . o 6 f 6 z ' &.2.w.w.2.%.o.G M M n n n m m k k m n j 1 # .                                 ",
"                                    . # 6 9 & & 6 K 5.E.E.5.N B ` o.G l h m o.o.G l m m j 1 o .                                 ",
"                                    . o 1 , X . @ v 5.^.~.5.z z %.=.J k n J &.&.J l l k h 9 o .                                 ",
"                                        o X . . @ v 5.^.^.4.a z ,.8.L c Y &.;.&.J l j h h 9 # .                                 ",
"                                        . . . $ p _ t.!.!.t._ _ t.y.] U &.3.3.&.H j h 0 9 < o .                                 ",
"                                            . 7 [ y.J.!.!.K.t.t.J.J.y.8.0.>.>.+.N h f 6 & X                                     ",
"                                            . 8 ,.Q.!.!.J.!.!.~.~.Q.E.p.q.:.&.Y m 0 6 1 X .                                     ",
"                                            . 4 #.i.W.!.~.~.!.!.~.J.u.q.3.&.P n h 6 & X                                         ",
"                                            . 3 L %.r.H.H.H.H.K.K.i.0.-.&.Y n 0 9 , o .                                         ",
"                                                5 b %.w.w.q.q.q.q.0.3.&.J n h 6 & o                                             ",
"                                                . 5 J &.1.2.<.<.<.2.&.` n 0 f 6 o .                                             ",
"                                                . @ w _ ..C.C.C.C.X.' N h 0 f 6 o .                                             ",
"                                                . X 1 C  .F.Z.M.M.| K l j h f 3 o .                                             ",
"                                                . X 1 S C.I.F.Z.M.| ( l l k h 1 X .                                             ",
"                                                4 3 9 S G.T.P.F.Z. .K M l G F A a 8                                             ",
"                                            . 2 I U c S S.R.T.I.Z.| K m m J *.7.7.{ 8 .                                         ",
"                                            . q o.&.M Z m.U.U.Y.A.| D l l U r././.4.u .                                         ",
"                                            . 7 O.&.N V b.B.B.V.x.b.( l l U r././.4.u .                                         ",
"                                            . 5 L I h s d.x.x.x.x.h.} / ( ) S.D.7.[ 8 .                                         ",
"                                              : 2 5 # t s.z.z.l.g.g.j.j.h.h.v.} d 7 :                                           ",
"                                              = . . . r ! h.f.s.W W a.d.j.f.~ T - . *                                           ",
"                                              - * . . : d / Q s r e e y R / d i O . O                                           ",
"                                          - -     = O $ w k f 1 o . . $ w j f 3 # O = - -                                       ",
"                                          - -     - * = 2 4 2 > + O O = 5 4 2 > + = - - -                                       ",
"                                              - - - -                             - -                                           ",
"                                              - - - - - - - - - - - - - - - - - - - -                                           ",
"                                                                                                                                ",
"                                                                                                                                ",
"                                                                                                                                ",
"                                                                                                                                ",
"                                                                                                                                ",
"                                                                                                                                ",
"                                                                                                                                ",
"                                                                                                                                ",
"                                                                                                                                ",
"                                                                                                                                ",
"                                                                                                                                "
};
