/* XPM */
static char *player_R1703347214[] = {
/* columns rows colors chars-per-pixel */
"64 64 174 2 ",
"   c None",
".  c #000000",
"X  c #0B0603",
"o  c #0E0905",
"O  c #05060D",
"+  c #0D0A0D",
"@  c #100503",
"#  c #120B07",
"$  c #140E09",
"%  c #190F0A",
"&  c #1B1009",
"*  c #060913",
"=  c #0A0B13",
"-  c #0C0E1A",
";  c #100E12",
":  c #131112",
">  c #1C1312",
",  c #24160D",
"<  c #25180F",
"1  c #2C190D",
"2  c #241A15",
"3  c #2D1D13",
"4  c #291D1A",
"5  c #231814",
"6  c #311E11",
"7  c #26221C",
"8  c #2B251E",
"9  c #342114",
"0  c #3B2415",
"q  c #342018",
"w  c #3D281A",
"e  c #081324",
"r  c #131826",
"t  c #151F30",
"y  c #1A2434",
"u  c #2E2922",
"i  c #272025",
"p  c #3A2B23",
"a  c #3A3127",
"s  c #2E2D37",
"d  c #3A3539",
"f  c #412717",
"g  c #422817",
"h  c #442B1A",
"j  c #492E1C",
"k  c #4C311D",
"l  c #53351E",
"z  c #402E25",
"x  c #403027",
"c  c #4F3220",
"v  c #44332A",
"b  c #4A372A",
"n  c #523621",
"m  c #563923",
"M  c #593B24",
"N  c #5D3F2A",
"B  c #55382A",
"V  c #41383C",
"C  c #503E37",
"Z  c #4F413C",
"A  c #534030",
"S  c #5B473B",
"D  c #5E4A3F",
"F  c #5A4536",
"G  c #64432C",
"H  c #68472F",
"J  c #6D4B34",
"K  c #654A3B",
"L  c #664936",
"P  c #704C36",
"I  c #714E38",
"U  c #73533C",
"Y  c #7D563E",
"T  c #182A50",
"R  c #3D3B42",
"E  c #17376F",
"W  c #1C3A6F",
"Q  c #433C41",
"!  c #2A456E",
"~  c #28447A",
"^  c #3F5174",
"/  c #4C4345",
"(  c #524542",
")  c #5F585A",
"_  c #645244",
"`  c #7E5740",
"'  c #735747",
"]  c #77604B",
"[  c #726554",
"{  c #746856",
"}  c #444B61",
"|  c #6F6D7C",
" . c #716E7A",
".. c #7B6D71",
"X. c #79717A",
"o. c #825A41",
"O. c #876149",
"+. c #966A4F",
"@. c #9A6C4F",
"#. c #886750",
"$. c #8F6A53",
"%. c #946E55",
"&. c #9A6E52",
"*. c #90785F",
"=. c #9D7459",
"-. c #A8775A",
";. c #AC7A5C",
":. c #A77659",
">. c #B07D5F",
",. c #947D66",
"<. c #9F7B6A",
"1. c #9E7864",
"2. c #AA7F63",
"3. c #B17F60",
"4. c #96846E",
"5. c #9C856D",
"6. c #86817F",
"7. c #998873",
"8. c #A1866C",
"9. c #A78468",
"0. c #B18364",
"q. c #B28768",
"w. c #B4896B",
"e. c #A28E76",
"r. c #AC9476",
"t. c #A59179",
"y. c #AA957B",
"u. c #B49275",
"i. c #BC9779",
"p. c #BB9A7C",
"a. c #1D4582",
"s. c #274E89",
"d. c #28528F",
"f. c #32558D",
"g. c #265097",
"h. c #355B95",
"j. c #355A95",
"k. c #2252A0",
"l. c #275FB2",
"z. c #2966BB",
"x. c #2966BA",
"c. c #455F8C",
"v. c #415E92",
"b. c #45618E",
"n. c #626880",
"m. c #747B8E",
"M. c #777F9A",
"N. c #416FB4",
"B. c #4A77B9",
"V. c #4774B6",
"C. c #857D8A",
"Z. c #7B829C",
"A. c #6E82A7",
"S. c #8A868D",
"D. c #9B938A",
"F. c #81879F",
"G. c #898A98",
"H. c #BEA184",
"J. c #BAA589",
"K. c #B7A287",
"L. c #8088A1",
"P. c #8E93A6",
"I. c #9399AC",
"U. c #8A9BB9",
"Y. c #8092B2",
"T. c #A1A5B4",
"R. c #A8ABB8",
"E. c #C1A587",
"W. c #C1A789",
"Q. c #C4AB8E",
"!. c #C2AE91",
"~. c #C5B093",
"^. c #CAB496",
"/. c #CEB899",
/* pixels */
"                                                                                                                                ",
"                                                                                                                                ",
"                                                                                                                                ",
"                                                                                                                                ",
"                                                                                                                                ",
"                                                                                                                                ",
"                                                                                                                                ",
"                                                                                                                                ",
"                                                                                                                                ",
"                                                                                                                                ",
"                                                                                                                                ",
"                                                                                                                                ",
"                                        . . . . . . . .     . . . .                                                             ",
"                                        . . $ $ $ $ o o     $ # X .                                                             ",
"                                        . $ 9 w h w 9 < X # 9 9 o . . . . .                                                     ",
"                                        . o 9 k m m k 0 % > k j > o $ $ $ $                                                     ",
"                                        . . X 3 j M m j 9 0 k l 0 9 0 w w 9 $ .                                                 ",
"                                        X # o < j m M m j k n m k k l G A k < o                                                 ",
"                                    . X < 9 w j m m M m m l m m l l m M M l j 9 # .                                             ",
"                                    X & 9 k m M M m m m m m m m l A m m l G M j < #                                             ",
"                                . o , 0 k m m m M m m m m m m m M G l l m m M m k 9 $ .                                         ",
"                                . o 6 j m m m m n n m m M m M m l l l l m m m M M h $ .                                         ",
"                                . X 6 h m m M m k j n m m m m n j h w k k m m M M w $ .                                         ",
"                                . # 3 h k n l k g h l M M m M n h w l G H H m n M j , X                                         ",
"                                . # 6 g j g j g g g n M M M m k w l Y +.@.o.m h n c 0 < X .                                     ",
"                                . X 6 g g g g w f g n M M n n n M J &.0.>.&.I M n n h 6 # .                                     ",
"                                . o 6 h l k h w w g n M M n g m o.&.;.;.2.-.&.o.M g g 6 # .                                     ",
"                                . # 3 j n l j k n M n n m M M H ` %.0.q.w.2.&.U j 6 w 6 X .                                     ",
"                                . X 3 j l m l G o.o.M g n H o.` B ( 2.W.E.8.K 6 & & 0 6 # .                                     ",
"                                . # 6 j k n l P &.&.P n k J =.$.z a 4.^.^.5.v @ . X , < o .                                     ",
"                                . # 6 g g j l J &.;.&.Y n L 8.4.z z 4.~.^.5.v @ . . X o                                         ",
"                                . X , 9 w h j H &.>.3.&.I ' y.y._ _ t.~.!.y._ u $ . . .                                         ",
"                                    X % 6 g g G +.0.;.0.8.y.J.K.e.e.K.Q.!.J.t.[ 7 .                                             ",
"                                    . o 1 6 0 n Y &.:.q.p.J.Q.~.~.Q.!.!.!.!.Q.,.8 .                                             ",
"                                        o % 6 j n J &.0.w.i.H.~.~.!.!.!.!.W.i.#.7 .                                             ",
"                                        . o < 9 9 n Y @.:.0.p.p.H.H.H.H.H.u.&.L 2 .                                             ",
"                                            X & 6 g n P &.0.0.q.q.q.q.q.w.%.b 2                                                 ",
"                                            . X 6 f f n Y =.1.5.<.<.2.1.&.K 5 .                                                 ",
"                                            . @ 6 f 0 j G U ..Z.C.C.C...K f # .                                                 ",
"                                            . o 1 g g j l D  .Z.M.M.Z.m.C 1 o .                                                 ",
"                                            . X < h k l l K | Z.M.L.I.S.S 1 X .                                                 ",
"                                            u a A G A l m K | Z.Z.P.T.G.( 0 3 2                                                 ",
"                                        . 8 [ 7.e.*.I l l D  .Z.I.T.R.S.S c U J 2 .                                             ",
"                                        . u 4././.r.U l l D | A.Y.U.U.m.C M &.O.q .                                             ",
"                                        . u 4././.t.U l l ( c.N.B.B.B.b.d G &.O.7 .                                             ",
"                                        . 7 [ 7.D.S.) / / } j.l.x.x.z.d.s g I K 2 .                                             ",
"                                          : i d } v.h.h.h.h.g.k.l.z.z.d.y # , 2 :                                               ",
"                                          * . * T ~ f.j.d.a.E W ~ h.v.! e . . . *                                               ",
"                                          * . + i d Q Q y e e r s V / d $ . . * -                                               ",
"                                      - - * . # 3 f k f # . . o 1 f k w $ O =     - -                                           ",
"                                      - - - * = > 2 4 2 ; O O = > 2 4 2 - * -     - -                                           ",
"                                          - -                             - - - -                                               ",
"                                          - - - - - - - - - - - - - - - - - - - -                                               ",
"                                                                                                                                ",
"                                                                                                                                ",
"                                                                                                                                ",
"                                                                                                                                ",
"                                                                                                                                ",
"                                                                                                                                ",
"                                                                                                                                ",
"                                                                                                                                ",
"                                                                                                                                ",
"                                                                                                                                ",
"                                                                                                                                "
};
