/* XPM */
static char *player_D1703347213[] = {
/* columns rows colors chars-per-pixel */
"64 64 162 2 ",
"   c None",
".  c #000000",
"X  c #0C0704",
"o  c #0E0905",
"O  c #05060D",
"+  c #07080F",
"@  c #0B0A0C",
"#  c #110B07",
"$  c #140E08",
"%  c #1D130C",
"&  c #17100A",
"*  c #060912",
"=  c #0B0B13",
"-  c #050C1A",
";  c #0C0E1A",
":  c #07111F",
">  c #171314",
",  c #24160D",
"<  c #24190F",
"1  c #2C1A0F",
"2  c #301C0F",
"3  c #241914",
"4  c #2D1B10",
"5  c #291D19",
"6  c #321E11",
"7  c #27221D",
"8  c #2A241E",
"9  c #342114",
"0  c #3A2515",
"q  c #3D2819",
"w  c #3D271E",
"e  c #181C29",
"r  c #0C1C39",
"t  c #2E2922",
"y  c #2A272D",
"u  c #3F2E25",
"i  c #3F3529",
"p  c #3D383D",
"a  c #412717",
"s  c #412817",
"d  c #432C1A",
"f  c #4A2E1B",
"g  c #4C311D",
"h  c #52351E",
"j  c #402F26",
"k  c #433227",
"l  c #4B372A",
"z  c #403028",
"x  c #523621",
"c  c #563923",
"v  c #593B24",
"b  c #5B3C2A",
"n  c #55382A",
"m  c #5D473B",
"M  c #5E4A3E",
"N  c #5D4537",
"B  c #64432B",
"V  c #68472F",
"C  c #634B37",
"Z  c #6C4C34",
"A  c #684A38",
"S  c #704E36",
"D  c #714F38",
"F  c #72533C",
"G  c #7E573F",
"H  c #10254E",
"J  c #383D44",
"K  c #1C3C75",
"L  c #1A3C78",
"P  c #213E6A",
"I  c #413B41",
"U  c #4B4346",
"Y  c #524541",
"T  c #414A5F",
"R  c #614C40",
"E  c #635143",
"W  c #725646",
"Q  c #7B5942",
"!  c #6B5D56",
"~  c #746856",
"^  c #736654",
"/  c #424A60",
"(  c #686B7D",
")  c #706D7A",
"_  c #7F7173",
"`  c #825A41",
"'  c #92674C",
"]  c #94684D",
"[  c #8E6952",
"{  c #886750",
"}  c #936D54",
"|  c #9B6E52",
" . c #9B7056",
".. c #9F775B",
"X. c #957B5F",
"o. c #947057",
"O. c #87674C",
"+. c #A0765A",
"@. c #A27B5E",
"#. c #AD7B5D",
"$. c #A8775A",
"%. c #B07E5F",
"&. c #937B65",
"*. c #9F7A6A",
"=. c #9E7864",
"-. c #A87E62",
";. c #B17F60",
":. c #96856E",
">. c #9E836B",
",. c #9A8C79",
"<. c #9B8A72",
"1. c #A98163",
"2. c #B28769",
"3. c #B4896A",
"4. c #A38F76",
"5. c #A98C70",
"6. c #A59177",
"7. c #A49179",
"8. c #AB967D",
"9. c #B39376",
"0. c #BB9576",
"q. c #B9997B",
"w. c #2F5288",
"e. c #23529D",
"r. c #345A94",
"t. c #305C9B",
"y. c #265AA9",
"u. c #265FB0",
"i. c #2C62AE",
"p. c #2861B4",
"a. c #2864B9",
"s. c #346CBB",
"d. c #435D8A",
"f. c #49658D",
"g. c #4C6690",
"h. c #596F90",
"j. c #787681",
"k. c #416FB3",
"l. c #4775B5",
"z. c #4A78B9",
"x. c #847D8A",
"c. c #7C8297",
"v. c #6E81A7",
"b. c #8B878D",
"n. c #81889F",
"m. c #9F9990",
"M. c #A49B90",
"N. c #B7A287",
"B. c #BDA184",
"V. c #B9A58A",
"C. c #838AA2",
"Z. c #8190A4",
"A. c #8798B7",
"S. c #9499AB",
"D. c #9EA2B2",
"F. c #C1A789",
"G. c #C2AA8C",
"H. c #C8AD8E",
"J. c #C2AE90",
"K. c #C5B093",
"L. c #CDB695",
"P. c #CEB898",
/* pixels */
"                                                                                                                                ",
"                                                                                                                                ",
"                                                                                                                                ",
"                                                                                                                                ",
"                                                                                                                                ",
"                                                                                                                                ",
"                                                                                                                                ",
"                                                                                                                                ",
"                                                                                                                                ",
"                                                                                                                                ",
"                                                                                                                                ",
"                                                                                                                                ",
"                                            . . . . . . . .     . . . .                                                         ",
"                                            . X # $ $ $ # X     $ o . .                                                         ",
"                                            . o 9 d d q 9 , X # 9 9 @ . . . . .                                                 ",
"                                            . o 9 g c c g 0 & , g g < $ & # # o                                                 ",
"                                            . . o 3 g v c f 9 0 g h f q d q 9 < o .                                             ",
"                                            o # # < f v v h g g h B h B v c g 9 o .                                             ",
"                                        . X , 9 a d c c v c x h x B v v c v c q # .                                             ",
"                                        X % 0 g c c c c c c x c h h c c c v v f , o                                             ",
"                                    . o , 0 f c c c v c v c f f x B h x v v c g 0 , o .                                         ",
"                                    . # 9 g c c c c c h h f s a h h g B c c c c g 9 o .                                         ",
"                                    . $ q c c c c c f d d a 0 a q q g c c v c c c q $ .                                         ",
"                                    . $ d v v c v x d s x b b b B B V B c h c v v d $ .                                         ",
"                                    . $ d B x B h h q x G ' ' ' O.] | ` h g h v v d & .                                         ",
"                                    . $ d c c x h h c Z | ;.;.#.#.1.1.| S h c h c d # .                                         ",
"                                    . $ d v v h d c Q  .$.%.#.#.#.#.1.#.| G v f c d $ .                                         ",
"                                    . $ q c c c v V Q | -.3.2.2.2.1.] ] $.] v a d 9 $ .                                         ",
"                                    . # 9 f h V ` ` n N >.F.F.B.B.>.N b ] ] v 6 % #                                             ",
"                                    . o , 0 g D +.} u u :.J.K.K.K.:.z w [ @.Q k & .                                             ",
"                                        X % s F 5.&.u u :.H.J.J.J.:.u u &.B.q.~ 7 .                                             ",
"                                        . & x O.N.4.E E 4.J.J.J.J.7.E E 7.H.J.&.8 .                                             ",
"                                        . 3 F 1.B.V.7.6.V.K.J.G.J.V.7.7.V.F.0.[ 8 .                                             ",
"                                        . 3 A o.9.F.J.K.K.V.J.J.J.J.J.J.F.9.} A 3 .                                             ",
"                                            3 l [ 0.F.K.J.J.V.K.J.J.J.G.0.} l 3                                                 ",
"                                            . , Z +.9.B.B.B.B.B.B.B.B.9.+.A % .                                                 ",
"                                            . # w D ..3.3.3.3.2.2.2.3.+.D d # .                                                 ",
"                                            . o 4 c `  .=.*.*.*.*.-. .` x 4 o .                                                 ",
"                                            . X 1 f B W _ x.x.x.x._ W b f 4 o .                                                 ",
"                                            . # 6 f g M ) c.n.n.C.j.C h f 6 o .                                                 ",
"                                            . o 0 h h M ) c.S.D.D.b.E c h 0 o .                                                 ",
"                                            8 i C Z B m h.v.A.A.A.c.E b Z m i 8                                                 ",
"                                        . 8 ~ <.6.&.C m d.l.l.l.z.f.Y Z X.6.<.~ 8 .                                             ",
"                                        . t :.P.L.7.! T r.p.i.u.a.t.T ! 8.L.P.:.t .                                             ",
"                                        . t :.L.L.M.h.t.u.u.e.e.i.i.t.h.M.L.L.:.t .                                             ",
"                                        . 8 ^ ,.M.C.l.a.u.e.L L e.u.a.l.C.M.,.^ 8 .                                             ",
"                                          > 7 J f.l.s.u.y.K r r K y.u.s.l.f.J 7 >                                               ",
"                                          + . : P r.r.w.K H - - H K w.r.r.P : . O                                               ",
"                                          + . @ y l U J e - * * - e p U J y @ . +                                               ",
"                                      ; ; = O # 1 a f w # . * = . # q f s 4 # . * ; ;                                           ",
"                                      ; ; ; + = > 5 5 3 = @ ; ; * = 5 5 3 > = = = ; ;                                           ",
"                                          ; ;             ; ; ; ;             ; ;                                               ",
"                                          ; ; ; ; ; ; ; ; ; ; ; ; ; ; ; ; ; ; ; ;                                               ",
"                                                                                                                                ",
"                                                                                                                                ",
"                                                                                                                                ",
"                                                                                                                                ",
"                                                                                                                                ",
"                                                                                                                                ",
"                                                                                                                                ",
"                                                                                                                                ",
"                                                                                                                                ",
"                                                                                                                                ",
"                                                                                                                                "
};
