/* XPM */
static char *arbre1703347213[] = {
/* columns rows colors chars-per-pixel */
"64 64 114 2 ",
"   c None",
".  c #322F20",
"X  c #3B2C22",
"o  c #2F3620",
"O  c #253E22",
"+  c #2D3B21",
"@  c #3B3521",
"#  c #333C22",
"$  c #3A3D20",
"%  c #3B3D2B",
"&  c #4A2720",
"*  c #462B20",
"=  c #4E2A22",
"-  c #4D2F29",
";  c #542D22",
":  c #443221",
">  c #4B3424",
",  c #4D3D26",
"<  c #443429",
"1  c #4D322C",
"2  c #453B2C",
"3  c #533524",
"4  c #593422",
"5  c #523C24",
"6  c #5C3C22",
"7  c #493F33",
"8  c #603E21",
"9  c #2E462E",
"0  c #2F4C2E",
"q  c #32442E",
"w  c #3C412B",
"e  c #314E2E",
"r  c #34512D",
"t  c #3C542B",
"y  c #3D5F2E",
"u  c #2C4331",
"i  c #2E4A30",
"p  c #304531",
"a  c #3C4630",
"s  c #334B33",
"d  c #3B4E34",
"f  c #344738",
"g  c #374A39",
"h  c #3B4D3B",
"j  c #3D5334",
"k  c #3B5B34",
"l  c #3E533C",
"z  c #3E5A38",
"x  c #3F602E",
"c  c #3A6030",
"v  c #41412A",
"b  c #484029",
"n  c #4C5E27",
"m  c #44562D",
"M  c #445A2A",
"N  c #4B5D29",
"B  c #414F3F",
"V  c #524033",
"C  c #445534",
"Z  c #485637",
"A  c #465D35",
"S  c #495D31",
"D  c #43533C",
"F  c #48553D",
"G  c #445A3C",
"H  c #4E5938",
"J  c #4E6126",
"K  c #45632D",
"L  c #4C642B",
"P  c #476D2F",
"I  c #4C6B2D",
"U  c #556524",
"Y  c #556926",
"T  c #546D29",
"R  c #4F732E",
"E  c #53732C",
"W  c #53792F",
"Q  c #5A7A2B",
"!  c #436434",
"~  c #426B33",
"^  c #486D34",
"/  c #46653A",
"(  c #48653A",
")  c #496939",
"_  c #467233",
"`  c #4B7334",
"'  c #4D7C34",
"]  c #517C31",
"[  c #587D31",
"{  c #667E26",
"}  c #435040",
"|  c #475A40",
" . c #485C40",
".. c #57802F",
"X. c #5D852E",
"o. c #4F8235",
"O. c #508335",
"+. c #5B8531",
"@. c #578833",
"#. c #5B8B32",
"$. c #648E2F",
"%. c #688F2D",
"&. c #66932F",
"*. c #6A962E",
"=. c #6E992E",
"-. c #72972B",
";. c #739C2C",
":. c #7B9E28",
">. c #618E30",
",. c #639230",
"<. c #77A02B",
"1. c #7CA42A",
"2. c #80A729",
"3. c #82A828",
/* pixels */
"                                                                                                                                ",
"                                                            G G A G |                                                           ",
"                                                          ( +.-.;.%.^  .                                                        ",
"                                                        ( +.1.3.3.2.-.` |                                                       ",
"                                                      ( +.1.3.3.3.3.3.*.`  .                                                    ",
"                                                    ( +.1.3.3.3.3.3.3.2.-.`  .                                                  ",
"                                                  D [ 1.2.3.3.3.3.3.3.3.2.>.G                                                   ",
"                                                  ( *.3.2.3.3.3.3.3.3.3.2.*.!                                                   ",
"                                                l _ =.;.1.3.3.3.3.3.3.3.3.1.[  .                                                ",
"                                                ) o.;.<.&.&.1.1.2.1.2.2.3.1.#.^  .                                              ",
"                                              ) >.;.1.1.;.#.#.>.#.,.>.;.3.=.@.@.` z |                                           ",
"                                          l ( >.1.2.&.,.;.=.#.@.@.,.;.:.&.=.;.;.@.` ~  .                                        ",
"                                        / ' ,.1.2.3.<.,.#.>.=.<.<.1.3.=.@.;.3.3.;.#.O.^ |                                       ",
"                                      / ' *.2.3.3.3.3.;.@.O.&.1.3.3.3.&.O.=.3.3.3.1.;.+.L F                                     ",
"                                    / ' ,.2.3.3.3.3.3.1.#.,.1.3.3.3.3.=.@.;.3.3.3.3.2.;.W C }                                   ",
"                                  | ' *.1.2.3.3.3.3.3.;.*.1.1.3.3.3.3.2.,.&.1.3.3.3.3.1.>.N Z                                   ",
"                                  ) &.1.3.3.3.3.3.3.1.,.<.3.3.3.3.3.3.2.=.#.;.3.3.3.3.3.;.W m B                                 ",
"                                l ] 1.3.3.3.3.3.3.3.=.>.<.3.3.3.3.3.3.3.2.,.,.;.1.3.3.3.;.E N Z                                 ",
"                              F S ..1.3.3.3.3.3.1.=.@.@.<.3.3.3.3.3.2.2.2.,.O.+.<.3.3.:.>.W Y m                                 ",
"                              B L O.=.1.3.1.;.&.&.#.O.@.<.3.3.3.3.3.2.2.;.@.W O.&.1.1.>.O.W Y n F                               ",
"                              D J E ..&.&.&.@.o.' W ] O.,.1.3.3.3.3.3.2.&.W Y T O.>.>.O.] T U U n Z                             ",
"                            F S U Y E O.o.o.o.E E E ] W O.,.1.3.3.3.2.=.#.T U U Y T T T Y U U U U n F                           ",
"                          F K W O.Q T E E E T T E O.o.T ] O.,.1.1.1.=.+.O.T U U U U U U U U E E U U J Z                         ",
"                        F S Q =.<.-...W W ' ] W o.O.] E T ] O.#.#.@.@.o.E U U U U U U Y Y E ] ] E U U J D                       ",
"                      F N E =.2.3.2.;.O.o.O.#.#.@.@.@.[ Y T ] o.O.O.] ] T Y U U U U U Y ..O.O.O.] E U U C                       ",
"                      m U X.<.3.3.3.;.@.@.*.1.1.1.1.1.&.T Y T W ] ] E Y Y Y Y U U U U Y W O.O.O.O.] T U n D                     ",
"                    } m X.;.2.3.3.3.;.#.*.1.3.3.3.3.1.1.+.E Y Y Y Y Y Y T W ] E Y U U U E O.O.O.O.O.T U n d                     ",
"                    Z ^ *.3.3.3.3.2.=.=.2.3.3.3.3.2.2.1.#.] T T T Y Y W O.O.O.O.T Y U U E O.O.O.O.O.Y U U C                     ",
"                    m E =.3.2.2.;.,.>.1.3.3.3.3.3.3.3.1.*.O.o.O.] E ] o.O.O.O.O.O.E U U E O.O.O.O.O.T U U n B                   ",
"                    C W =.3.2.*.Q W #.2.3.3.3.3.3.3.3.3.1.#.O.O.O.O.o.O.O.O.O.O.O.W Y U Y E ] O.O.O.T U U n D                   ",
"                    Z L X.&.&.Q Y Y #.1.3.3.3.3.3.3.3.1.,.@.o.O.O.O.O.O.O.o.O.o.O.O.Y U U U T W O.W Y U U n d                   ",
"                    } m T E E U U Y #.1.3.3.3.3.3.3.3.1.#.O.O.o.O.o.O.O.O.o.o.o.O.W Y U U U U Y T Y U U U n D                   ",
"                    D K T Y Y Y Y T X.1.3.3.2.3.3.3.3.<.@.o.o.o.T W o.O.O.O.O.O.O.W T U U U U U U U U n t C                     ",
"                    Z R O.[ [ O.E T X.1.3.3.3.3.3.3.1.&.@.o...W Y T o.O.O.O.O.o.o.O.Y U U U n t t t t r 9 g                     ",
"                  C I @.*.;.#.O.O.T { :.3.3.3.3.3.3.<.#.o.o.o.W Y Y W O.O.o.O.o.o.W Y U U M M n n t e r 9 e B                   ",
"                F ! O.=.1.3.<.#.o.W Y { :.3.3.3.1.<.>.@.o.o.o.E U U T [ O.O.O.O.o.W Y U n r M U U U J n t e e B                 ",
"                C ` &.1.3.3.1.,.o.] U U { ;.1.;.&.@.O.O.o.o.W Y U U U E o.o.o.o.W T U U M e M U U U U U U t 9 e                 ",
"              F ! ] *.3.3.3.1.#.o.] L t T O.@.@.O.O.O.O.o.o.T n t J U U W ] ] W Y U U M e e t U U U U U U n r e h               ",
"              C ` O.*.3.3.3.1.#.o.] I M J T ] E W W O.W W R Y t e t N n Y Y U U J n M e e 0 y U U U U U U U t q h               ",
"              k o.O.*.3.3.1.;.@.o.o.] P t M J Y Y U U Y J J t r 0 e e t N M N m r e e 0 0 0 t J U U U U U U n r s h             ",
"              k ' o.#.=.=.,.#.o.O.O.O._ r e r M M M M M r 0 e 0 0 0 0 0 e e e e e e e e 0 e 0 M U U U U U U J e i h             ",
"              z o.O.O.O.O.O.O.O.O.o.o._ e e e r 0 r e 0 0 0 0 e e e r K _ c c _ c K y 0 0 9 0 t n U U U U U n r i h             ",
"              j E o.O.o.O.O.O.O.O.O.' c 0 k c _ ~ K M r e 0 0 0 0 t I ] O.O.o.O.] T U t e e 0 0 t n U U U U n e i h             ",
"              C I O.O.O.O.O.O.o.O.o._ c c o.O.O.o.W W K r r 0 0 0 x ] o.O.O.O.O.o.E Y U y 0 0 0 9 t M n U U y 0 i h             ",
"              F m R ' o.O.O.O.O.o.W R ' @.o.o.o.O.O.o.W J M r e r R O.o.O.O.o.O.o.W Y U n e 0 0 9 0 r r t r r 0 s h             ",
"                d y E O.O.O.O.O.] T E O.o.@.o.o.O.O.O.O.T J r 9 y ' o.o.O.o.O.O.O.o.Y U n e 0 0 9 9 0 0 0 0 0 0 s h             ",
"                | s M R W O.W E T Y O.O.o.o.O.O.o.O.o...T U N e x o.o.o.O.O.O.O.o.] Y U M e 0 9 u 9 0 0 0 0 9 s l               ",
"                  s r M L U T U U T O.o.o.o.o.o.o.o.o.W T U J e c o.o.o.O.o.O.o.O.] Y U n e 0 9 u u 9 0 9 0 s l                 ",
"                    s s e M n J n J ] o.O.O.O.O.o.O.o.O.Y Y U N x ] O.O.O.O.O.O.O.W U U M e 0 i f g g g g g l                   ",
"                      h s s e e e e T O.o.O.O.o.O.O.O.] Y U J M t P O.O.o.O.o.O.' Y U n r 0 0 g                                 ",
"                          h h h h d L o.O.o.o.O.O.O.] T U U M e 0 x ' O.O.O.O.O.W Y U n e 0 i h                                 ",
"                                  F K P E ] O.O.O.] E Y U M r e e r I ] O.o.O.] T U J y e 0 s B                                 ",
"                                    s t U Y E E E Y Y U m e e 9 0 e t I E E E E U U M e 0 i h                                   ",
"                                    } j M U U Y U U N t e 9 e q % 9 0 r n U U U U n r 9 0 h                                     ",
"                                      D d t t t t t e i q q b 5 5 b 9 e r t y t t t r 9 h                                       ",
"                                        D f i 9 i p q , b 5 8 8 8 V v q e 0 9 0 0 i i j                                         ",
"                                            V < 6 b b 6 6 6 8 8 8 8 6 > > w q q q u h                                           ",
"                                            3 4 8 8 $ > ; ; 6 4 8 8 6 = = 4 5 b > <                                             ",
"                                            - > 5 5 $ * ; 4 4 3 8 8 4 & = 4 6 $ : = 1                                           ",
"                                              H v + @ & = ; : $ 3 3 ; * X b 2 O q 1 1                                           ",
"                                                t 9 < > > o . o @ @ > # 0   j 0                                                 ",
"                                                        2 q % # @ + w k !                                                       ",
"                                                              a % e                                                             ",
"                                                                                                                                "
};
