/* XPM */
static char *coin21703350783[] = {
/* columns rows colors chars-per-pixel */
"64 64 198 2 ",
"   c None",
".  c #0C0203",
"X  c #0D030A",
"o  c #0F080F",
"O  c #10070E",
"+  c #130B0E",
"@  c #1C0F0E",
"#  c #1D130E",
"$  c #1C1512",
"%  c #1E1815",
"&  c #2E1B0C",
"*  c #24170D",
"=  c #331C0C",
"-  c #201C1E",
";  c #27200E",
":  c #39240D",
">  c #37280B",
",  c #3A340B",
"<  c #342B17",
"1  c #292222",
"2  c #332B2B",
"3  c #352C24",
"4  c #3C3434",
"5  c #452B0B",
"6  c #4A2D0A",
"7  c #4C3009",
"8  c #54330B",
"9  c #5D3A09",
"0  c #683F08",
"q  c #463E3E",
"w  c #523C26",
"e  c #544E0B",
"r  c #54420B",
"t  c #5A550A",
"y  c #56510B",
"u  c #534E10",
"i  c #57511A",
"p  c #7C4D06",
"a  c #6F4607",
"s  c #706C08",
"d  c #736D1D",
"f  c #666009",
"g  c #534E24",
"h  c #575129",
"j  c #544F3C",
"k  c #746E31",
"l  c #463F40",
"z  c #494649",
"x  c #50484A",
"c  c #59514B",
"v  c #645D5F",
"b  c #726D4E",
"n  c #736E5E",
"m  c #646260",
"M  c #736D6E",
"N  c #746E70",
"B  c #7B706A",
"V  c #8A5606",
"C  c #8D5805",
"Z  c #835506",
"A  c #915A04",
"S  c #8D5B12",
"D  c #9E6304",
"F  c #AE6C03",
"G  c #B16F03",
"H  c #B67203",
"J  c #C57B02",
"K  c #CA7E01",
"L  c #C07701",
"P  c #907C63",
"I  c #9A9306",
"U  c #948707",
"Y  c #A29405",
"T  c #ABA604",
"R  c #ADA906",
"E  c #B2AE04",
"W  c #B4B004",
"Q  c #ABA612",
"!  c #BF872F",
"~  c #AFAC2F",
"^  c #CF8101",
"/  c #D58501",
"(  c #D98700",
")  c #DE8B00",
"_  c #D58B04",
"`  c #C89F02",
"'  c #D89600",
"]  c #D79A00",
"[  c #E48D00",
"{  c #EB9300",
"}  c #E39900",
"|  c #F19500",
" . c #F59900",
".. c #FC9D00",
"X. c #F89C0A",
"o. c #DEA700",
"O. c #CCB803",
"+. c #FFA200",
"@. c #FEAD00",
"#. c #F7A700",
"$. c #E2B500",
"%. c #EEB400",
"&. c #E5BF00",
"*. c #FDB301",
"=. c #FFBB01",
"-. c #FFB00C",
";. c #FEA510",
":. c #FFB61F",
">. c #F8A927",
",. c #FFB02A",
"<. c #D6C302",
"1. c #E5C000",
"2. c #EBC401",
"3. c #E8CA00",
"4. c #FFC301",
"5. c #FECE00",
"6. c #F1C601",
"7. c #FED100",
"8. c #FEDB01",
"9. c #FFDB0D",
"0. c #F5D603",
"q. c #FFCE1F",
"w. c #EFE000",
"e. c #F4E300",
"r. c #FFEA01",
"t. c #FAE605",
"y. c #FEF500",
"u. c #FBF209",
"i. c #EFE011",
"p. c #FDFA1D",
"a. c #DAD838",
"s. c #FFC624",
"d. c #FFCE28",
"f. c #FFED29",
"g. c #FFF02D",
"h. c #ACA948",
"j. c #B2AE4F",
"k. c #ADA978",
"l. c #FFBE4F",
"z. c #E8B354",
"x. c #E0BB7E",
"c. c #DCDA51",
"v. c #FFC64A",
"b. c #FFC35C",
"n. c #FEC856",
"m. c #FFD758",
"M. c #EFE048",
"N. c #F1EE55",
"B. c #FFF953",
"V. c #FFFB5A",
"C. c #D9D66A",
"Z. c #FFCA6D",
"A. c #FCC467",
"S. c #FFD768",
"D. c #FFCA74",
"F. c #FFCC7A",
"G. c #FDD677",
"H. c #FFD17D",
"J. c #FEDC7A",
"K. c #F2EC6F",
"L. c #FEFC6D",
"P. c #F8EC7A",
"I. c #FFF57A",
"U. c #898380",
"Y. c #938F8F",
"T. c #999798",
"R. c #A29C98",
"E. c #B5A98C",
"W. c #B3AEA0",
"Q. c #B3B0B0",
"!. c #A6A3A4",
"~. c #D5CB95",
"^. c #FFCD85",
"/. c #FFD282",
"(. c #FFDB85",
"). c #FFD38A",
"_. c #FFD88D",
"`. c #FFDE9C",
"'. c #FFDD91",
"]. c #EAD49B",
"[. c #FFEF8D",
"{. c #FAE488",
"}. c #FAE895",
"|. c #FFF594",
" X c #F8F099",
".X c #FFF789",
"XX c #DAD7B0",
"oX c #FFE4A5",
"OX c #FFE2AA",
"+X c #FFF1B3",
"@X c #D4D3D4",
"#X c #DCD9D6",
"$X c #E5DBC6",
"%X c #FDF4DF",
"&X c #FDF1D4",
"*X c #E4E3DC",
"=X c #EEEEEA",
"-X c #F6F4EE",
/* pixels */
"                                                                                                                                ",
"                                                                                                                                ",
"                                                                                                                                ",
"                                                                                                                                ",
"                                                                                                                                ",
"                                                                                                                                ",
"                                                                                                                                ",
"                                                                                                                                ",
"                                                                                                                                ",
"                                                                                                                                ",
"                                                                                                                                ",
"                                                                                                                                ",
"                                                                                                                                ",
"                                                        . . . . X O X . .                                                       ",
"                                                      1 2 2 3 3 < < < 3 2 1                                                     ",
"                                                      q v M N n k d k b m z                                                     ",
"                                                    2 N Q.@X#XXXC.a.c.~.W.M 2                                                   ",
"                                                  2 c T.#X-X-X+XI.V.L. X~.P w =                                                 ",
"                                                4 M !.@X=X&X`.H.{.|.}.G.z.! S 9 =                                               ",
"                                              + q Y.@X=X%XOXD.l.(.oX`.l.>._ G p : +                                             ",
"                                              + l R.*X&XOX^.D.D./.^.A.,.X.[ J p : +                                             ",
"                                              - x R.$XOXD.Z.).`.H.l.,.;. .[ J Z 5 *                                             ",
"                                            2 x P E.]./.A.S.[.[.K.s.@.+...{ ^ D 0 5 &                                           ",
"                                          % z U.E.x.x.D._.}.I.B.f.9.4.*.+. .[ J D a 5 @                                         ",
"                                          % c k.].G.b.F.}.[.B.f.u.t.5.*.#... .[ J C 5 @                                         ",
"                                          % h j.K..X(.^.G.m.g.u.0.2.%.#.+.....| K A 6 *                                         ",
"                                          # i ~ N..XoX/.v.q.t.r.3.o.}  .+... .{ K A 5 $                                         ",
"                                          # h h.K.[.(.m.d.9.r.e.1.] ) | ......{ K C 5 @                                         ",
"                                          $ j k.}.J.v.s.9.r.y.e.&.' [ | .... .{ K V 5 @                                         ",
"                                          $ j k.].n.,.=.7.r.y.r.&.' ) | ..+...{ K V 5 #                                         ",
"                                          # g h.M.d.-.@.=.7.r.e.&.' ) { .... .{ K V 5 #                                         ",
"                                          # u Q i.9.*.+.@.4.8.e.&.' [ | ..+. .{ J V 5 #                                         ",
"                                          # e T e.5.@...+.=.8.e.1.' ) | ..+. .{ J V 5 #                                         ",
"                                          # e T w.7.*.....=.8.e.1.' ) | +... .{ K V 5 @                                         ",
"                                          # e T w.7.*...+.=.8.e.1.' ) | ..+...{ J V 5 #                                         ",
"                                          % y R w.7.@...+.=.8.e.1.' ) | .... .{ K V 5 @                                         ",
"                                          # y R 0.7.@...+.4.8.e.1.' ) | ......{ K C 5 $                                         ",
"                                          % y R w.7.@...+.=.8.e.1.' ) | ..+. .{ K C 6 @                                         ",
"                                          # y R e.7.@...+.*.5.0.$.' ) | ..+. .{ K C 6 @                                         ",
"                                          # y E 0.5.@.....#.%.$.] _ ) | ......{ K C 6 @                                         ",
"                                          # t W e.5.@..... .} _ _ / ) | ..+...{ ^ A 6 #                                         ",
"                                          % t W e.5.@..... .{ [ ) ) {  .......{ ^ A 6 #                                         ",
"                                          * t W e.5.@....... . .| {  .+.......| K A 6 *                                         ",
"                                          # e I O.2.*.@.+.......+.+...+.....| K G p 5 @                                         ",
"                                            , f U O.6.4.@.+.+.+.+.+.+..... .) G Z 8 :                                           ",
"                                              ; e I O.6.@... ..... .....{ ) G Z 5 *                                             ",
"                                                , s I ` } | { | | |  .{ ) H V 9 =                                               ",
"                                                  , e Z H / ) / ( ( ( / G p 6 =                                                 ",
"                                                    & 9 C F G G G G G F A 9 &                                                   ",
"                                                      : 8 9 9 9 9 9 9 9 8 :                                                     ",
"                                                      * & & & & & & & & & *                                                     ",
"                                                        o o + O o o O o O                                                       ",
"                                                                                                                                ",
"                                                                                                                                ",
"                                                                                                                                ",
"                                                                                                                                ",
"                                                                                                                                ",
"                                                                                                                                ",
"                                                                                                                                ",
"                                                                                                                                ",
"                                                                                                                                ",
"                                                                                                                                ",
"                                                                                                                                ",
"                                                                                                                                "
};
