/* XPM */
static char *coin51703350783[] = {
/* columns rows colors chars-per-pixel */
"64 64 198 2 ",
"   c None",
".  c #0D030F",
"X  c #0F090F",
"o  c #140B0E",
"O  c #190B09",
"+  c #1D140E",
"@  c #1C1612",
"#  c #21150D",
"$  c #2E1C0C",
"%  c #2B230B",
"&  c #3B240B",
"*  c #352C0C",
"=  c #3E2305",
"-  c #3B2817",
";  c #3F3026",
":  c #362D36",
">  c #272124",
",  c #492D0B",
"<  c #4A2802",
"1  c #41390A",
"2  c #483508",
"3  c #5C3A0B",
"4  c #5B3808",
"5  c #402E1D",
"6  c #633D08",
"7  c #443A36",
"8  c #4B460D",
"9  c #5A540A",
"0  c #5E5909",
"q  c #585209",
"w  c #5C571E",
"e  c #6E4508",
"r  c #7F4F06",
"t  c #744706",
"y  c #615B09",
"u  c #6E6609",
"i  c #6E6907",
"p  c #706C09",
"a  c #797608",
"s  c #7B7708",
"d  c #58513B",
"f  c #735022",
"g  c #5D5940",
"h  c #6A5D4E",
"j  c #625D61",
"k  c #6F6B73",
"l  c #814F04",
"z  c #815006",
"x  c #86540B",
"c  c #8E5B0E",
"v  c #9D6205",
"b  c #9C7906",
"n  c #A76703",
"m  c #B57102",
"M  c #BA7402",
"N  c #B07210",
"B  c #8C6B3B",
"V  c #8C6836",
"C  c #C47A02",
"Z  c #C57E0A",
"A  c #867E7B",
"S  c #9A8D06",
"D  c #998C1F",
"F  c #A49C06",
"G  c #ABA705",
"H  c #ABA806",
"J  c #BDBB04",
"K  c #999738",
"L  c #CA8008",
"P  c #D38301",
"I  c #DD8901",
"U  c #D68B12",
"Y  c #DB920E",
"T  c #E48C00",
"R  c #E98E00",
"E  c #E69100",
"W  c #EB9200",
"Q  c #EB970C",
"!  c #F59700",
"~  c #F59901",
"^  c #FE9D00",
"/  c #EF9B12",
"(  c #C1BD04",
")  c #D3B803",
"_  c #EDA600",
"`  c #FFA300",
"'  c #FFAC01",
"]  c #FFA30B",
"[  c #F4A200",
"{  c #FFB300",
"}  c #FFBD00",
"|  c #F6B701",
" . c #FEA715",
".. c #FFAB11",
"X. c #DE9F37",
"o. c #C98E2E",
"O. c #EA9F25",
"+. c #FEAB22",
"@. c #F9A720",
"#. c #FEB12D",
"$. c #FFB63C",
"%. c #FFB837",
"&. c #E8A73B",
"*. c #C2C003",
"=. c #DFDC02",
"-. c #E1CD03",
";. c #E3C402",
":. c #F6C500",
">. c #FEC300",
",. c #FECC00",
"<. c #E1DD02",
"1. c #E7D402",
"2. c #FFD300",
"3. c #FFDA00",
"4. c #F5DE00",
"5. c #FCC415",
"6. c #E3E102",
"7. c #F4E400",
"8. c #FFE400",
"9. c #F6E900",
"0. c #FFEA01",
"q. c #FFED11",
"w. c #FFF811",
"e. c #C1C038",
"r. c #E0DF38",
"t. c #FFFE37",
"y. c #96856F",
"u. c #AE9A7E",
"i. c #DAA857",
"p. c #D6AC4D",
"a. c #FFB946",
"s. c #F2B34C",
"d. c #FEBB4D",
"f. c #FEBE53",
"g. c #D6AB64",
"h. c #D2AF7D",
"j. c #D7B072",
"k. c #E6B769",
"l. c #E6BE7B",
"z. c #FFC055",
"x. c #FFC25B",
"c. c #FFC34A",
"v. c #FFE949",
"b. c #F4F45D",
"n. c #C1C17F",
"m. c #FEC564",
"M. c #FEC76B",
"N. c #FFC96D",
"B. c #FECB74",
"V. c #FFCD7C",
"C. c #F5C576",
"Z. c #FFD07E",
"A. c #EBC079",
"S. c #FFE178",
"D. c #FFFF7C",
"F. c #968D85",
"G. c #A49A86",
"H. c #A4A29A",
"J. c #C5BBA4",
"K. c #F6CB85",
"L. c #FFD184",
"P. c #FED38B",
"I. c #FFDA89",
"U. c #ECCB94",
"Y. c #F2CD94",
"T. c #FED593",
"R. c #FED895",
"E. c #FEDA9E",
"W. c #FBD79D",
"Q. c #F9F596",
"!. c #FFF688",
"~. c #D0D1A0",
"^. c #E4CFAE",
"/. c #FFDCA2",
"(. c #F5DCAD",
"). c #F7D9A7",
"_. c #E5D2B3",
"`. c #F9DEB1",
"'. c #FFE7A8",
"]. c #FEE2B1",
"[. c #FEE4BA",
"{. c #FFEBB7",
"}. c #D0CECB",
"|. c #E7DDCC",
" X c #FFE8C4",
".X c #FCE8CB",
"XX c #FEEED4",
"oX c #F5E9D6",
"OX c #FFF1D4",
"+X c #FFFFD4",
"@X c #FFF2DC",
"#X c #FEF4E4",
"$X c #FFF7E9",
"%X c #FCFAEC",
"&X c #FEFAF3",
"*X c #FFFDFA",
"=X c #FDF6F2",
"-X c #EBE7E0",
/* pixels */
"                                                                                                                                ",
"                                                                                                                                ",
"                                                                                                                                ",
"                                                                                                                                ",
"                                                                                                                                ",
"                                                                                                                                ",
"                                                                                                                                ",
"                                                                                                                                ",
"                                                                                                                                ",
"                                                                                                                                ",
"                                                                                                                                ",
"                                                                                                                                ",
"                                                                                                                                ",
"                                                        . . . . . X . . .                                                       ",
"                                                        * * * * * * * * *                                                       ",
"                                                      8 p s s a a a a s p 8                                                     ",
"                                              # + + * i J <.<.<.=.<.<.=.( u * X                                                 ",
"                                            1 9 9 9 u S -.0.0.0.0.0.0.0.;.b e , $                                               ",
"                                          % u G *.*.J ;.| } } } { >.>.} ' I C x , +                                             ",
"                                        * q S -.9.9.4.,.{ ` ` ^ ` ` ` ` ` [ W m e & #                                           ",
"                                      * p F ) :.,.2.,.{ ` ^ ^ ^ ^ ^ ^ ^ ^ ` ^ P n e < O                                         ",
"                                    % q F 1.:.{ ` ` ` ` ` ^ ` ' ` ^ ^ ^ ^ ^ ^ Q U N f 5 >                                       ",
"                                  1 u S ) :.>.' ^ ^ ^ ^ ^ ` { >.{ ` ^ ` ^ ^ ^ @.s.j.G.y.j :                                     ",
"                                # 9 G =.:.{ ` ` ^ ^ ^ ^ ` { 3.8.,.' ^ ^ ^ ^  .d.).oX-X}.F.7 o                                   ",
"                                # 0 *.9.,.` ^ ^ ^ ^ ` ` { >.3.3.:.[ ! ^ ^ +.a.T.OX*X#X_.y.: o                                   ",
"                                @ y *.9.2.` ^ ^ ^ ^ ` { 3.3.2.} _ E R !  .x.R.XX*X%X(.g.V 5 o                                   ",
"                                # 0 ( 9.,.' ^ ^ ` ` { >.8.3.>.[ E P I @.$./.#X*X&X.XA.o.c - o                                   ",
"                                # y J 7.,.` ^ ^ ' { >.2.3.,.{ ~ T P Y s.L.XX*X$X[.T.A.i.B - o                                   ",
"                                + 0 J 7.,.` ^ ^ { 2.8.3.{ { ` ~ T U p.).OX*X&X].m.d.L.^.F.7 o                                   ",
"                                + 0 J 7.,.` ^ ^ { 2.8.3.} ' ` ^ Q X.l.oX*X#X XP.z.z.P._.F.7 O                                   ",
"                                + q J 7.,.` ^ ^ ` { >.2.3.,.{ ..s.U.oX=X#XR.m.N.T.W.K.g.B 5 o                                   ",
"                                + q J 7.,.` ^ ` ` ^ ' >.0.0.5.%.P.XX&X#X[.N.d.N./.].k.o.x & o                                   ",
"                                @ q J 7.,.` ^ ^ ^ ^ ` >.0.w.v.I..X=X#XR.V.V.V.L.P.C.&.L l = o                                   ",
"                                + q J 7.,.` ^ ^ ^ ^ ' >.q.t.Q.OX=X#X`.f.f.T.].R.z.@.Q C z & o                                   ",
"                                + q J 7.,.` ^ ^ ^ ^ ' 5.v.D.+X=XoX).K.f.M.T.E.N.#.~ R C z & o                                   ",
"                                + 9 J 9.,.` ^ ^ ^ ^ ..c.'.+X*X#XU.i.g.).].B.a.+.] ~ R C r & o                                   ",
"                                + 9 ( 9.,.' ^ ^ ^ @.a.L.OX*X$X[.l.i.k.(./.z. .^ ` ~ W C z & o                                   ",
"                                # y J 7.,.` ^ ^ +.f.E.XX*X#XR.M.C.U.Y.C.f.+.] ^ ^ ~ R C z - o                                   ",
"                                # 0 ( 7.,.' ^ ^ a.R.@X*X&X Xm.d.V.]./.a. .] ^ ` ^ ~ E C r & o                                   ",
"                                # y ( 9.,.] +.d.T.XX*X$X].P.N.N.L.T.N.+.^ ^ ^ ^ ` ~ W C z & o                                   ",
"                                + 0 ( 9.,...d.E.XX*X%X[.m.x.P./.L.z.#.] ^ ^ ^ ` ^ ~ W C r & o                                   ",
"                                # 0 G -.5.%.L.@X*X%X XP.d.f.E.].B.+.^ ^ ^ ^ ` ^ ^ W P m t , o                                   ",
"                                  1 i D p.R.XX*X#X'.B.B.L.P.L.B.$.] ^ ^ ^ ` ^ ^ ! P v e , $                                     ",
"                                    % d G.|.%X%X{.N.a.M.].].m.+.] ^ ` ^ ` ^ ^ W P n e & #                                       ",
"                                      : k H.~.Q.!.S.B.Z.R.L.%. .^ ^ ` ^ ^ ~ W C v t , #                                         ",
"                                        : g K r.b.!.'.Y.f.#.^ ^ ^ ^ ^ ` ~ E C v 6 & #                                           ",
"                                          % y H e.h.J.J.O.! ~ ~ ~ ~ ~ ~ T C v e , o                                             ",
"                                            1 9 w d h B Z I I I I I I I C z 4 & #                                               ",
"                                              # + @ $ 3 v m m m m m M M v 3 $ o                                                 ",
"                                                      & 3 e 6 6 3 6 6 6 3 &                                                     ",
"                                                        $ $ $ $ $ $ $ $ $                                                       ",
"                                                        X X X o X X X X o                                                       ",
"                                                                                                                                ",
"                                                                                                                                ",
"                                                                                                                                ",
"                                                                                                                                ",
"                                                                                                                                ",
"                                                                                                                                ",
"                                                                                                                                ",
"                                                                                                                                ",
"                                                                                                                                ",
"                                                                                                                                ",
"                                                                                                                                ",
"                                                                                                                                "
};
