/* XPM */
static char *ennemy11703351528[] = {
/* columns rows colors chars-per-pixel */
"64 64 226 2 ",
"   c None",
".  c #0E0B0B",
"X  c #0B060A",
"o  c #1A1B12",
"O  c #170D13",
"+  c #2F110A",
"@  c #391E0F",
"#  c #241C1B",
"$  c #281C16",
"%  c #2A120F",
"&  c #2C2719",
"*  c #392819",
"=  c #242422",
"-  c #2C2725",
";  c #332C27",
":  c #392724",
">  c #3A372E",
",  c #323534",
"<  c #3E3B33",
"1  c #3E3B3D",
"2  c #432C1F",
"3  c #493013",
"4  c #442A27",
"5  c #5B2F23",
"6  c #4D3324",
"7  c #4B3925",
"8  c #4B332C",
"9  c #4B392B",
"0  c #473A29",
"q  c #5C3E29",
"w  c #533A2A",
"e  c #4C3C33",
"r  c #413E37",
"t  c #563B33",
"y  c #613C28",
"u  c #4D4436",
"i  c #484437",
"p  c #5A4336",
"a  c #584739",
"s  c #5F4128",
"d  c #67452C",
"f  c #654828",
"g  c #774A28",
"h  c #654A3B",
"j  c #6C4D3B",
"k  c #674735",
"l  c #794A37",
"z  c #6B553B",
"x  c #76573B",
"c  c #5A4B44",
"v  c #524942",
"b  c #5A5347",
"n  c #50504D",
"m  c #5B5D51",
"M  c #4B4A50",
"N  c #654E43",
"B  c #744E41",
"V  c #6B5343",
"C  c #6C5A44",
"Z  c #6E5F4A",
"A  c #725141",
"S  c #765C44",
"D  c #7B5947",
"F  c #7D624E",
"G  c #796548",
"H  c #7F6D55",
"J  c #7B6351",
"K  c #767157",
"L  c #625E72",
"P  c #6F6B6E",
"I  c #5A5B74",
"U  c #805E39",
"Y  c #9D663B",
"T  c #805E4B",
"R  c #895942",
"E  c #86624C",
"W  c #8B694D",
"Q  c #956242",
"!  c #976748",
"~  c #896A55",
"^  c #966D56",
"/  c #897659",
"(  c #937258",
")  c #97775B",
"_  c #9C774E",
"`  c #A46D4A",
"'  c #AB684A",
"]  c #A8744B",
"[  c #A56D51",
"{  c #A47559",
"}  c #A57B5E",
"|  c #AB7A5C",
" . c #A77656",
".. c #B17C5A",
"X. c #B37655",
"o. c #8B7562",
"O. c #867767",
"+. c #967B64",
"@. c #977767",
"#. c #AA7C62",
"$. c #A47A66",
"%. c #B07D61",
"&. c #C17D63",
"*. c #97825E",
"=. c #A9835C",
"-. c #8D8566",
";. c #958563",
":. c #9A8165",
">. c #92806B",
",. c #9B876D",
"<. c #868376",
"1. c #AD8C65",
"2. c #AB8D6D",
"3. c #A58968",
"4. c #B58866",
"5. c #AB946D",
"6. c #B5986D",
"7. c #AA8D72",
"8. c #AC9373",
"9. c #A89776",
"0. c #BB9C74",
"q. c #B59C7B",
"w. c #BD9C7C",
"e. c #B89578",
"r. c #BBA47D",
"t. c #C3855F",
"y. c #DD935D",
"u. c #E4905E",
"i. c #C38C6D",
"p. c #C68A66",
"a. c #CF996D",
"s. c #C79467",
"d. c #DC9463",
"f. c #DA9A69",
"g. c #C49B7A",
"h. c #C99774",
"j. c #D89B76",
"k. c #CF8E6B",
"l. c #E79A69",
"z. c #CBA27A",
"x. c #DEA474",
"c. c #D3AA7B",
"v. c #D5A577",
"b. c #C1A26F",
"n. c #E2A26D",
"m. c #E7A26A",
"M. c #E2A474",
"N. c #EDAC7A",
"B. c #E8A776",
"V. c #F0A772",
"C. c #F1B27F",
"Z. c #6A7682",
"A. c #7D8895",
"S. c #838C9A",
"D. c #9A8E82",
"F. c #AB9487",
"G. c #BCA984",
"H. c #BFA280",
"J. c #939AA8",
"K. c #C4A584",
"L. c #C3AA84",
"P. c #CEAB82",
"I. c #C8A787",
"U. c #D1A581",
"Y. c #D3AE85",
"T. c #DBAD8A",
"R. c #DBB38A",
"E. c #D5B692",
"W. c #DBBB93",
"Q. c #D4BB98",
"!. c #E5AC85",
"~. c #E4B184",
"^. c #EEB483",
"/. c #EDB58B",
"(. c #E3B98E",
"). c #EBB98A",
"_. c #E7B788",
"`. c #F3B486",
"'. c #F3BC86",
"]. c #F3BC8B",
"[. c #F9BC8B",
"{. c #F7B687",
"}. c #E5BC92",
"|. c #ECBC93",
" X c #E8BA97",
".X c #F4B688",
"XX c #C8BDBD",
"oX c #E6B9A1",
"OX c #DFC295",
"+X c #F4C28D",
"@X c #FBC48E",
"#X c #FDCD8D",
"$X c #ECC594",
"%X c #E6C29B",
"&X c #E9C39C",
"*X c #ECC999",
"=X c #F5C494",
"-X c #FBC393",
";X c #FCCC96",
":X c #F3C59A",
">X c #FCC699",
",X c #F2CA9D",
"<X c #FECD9B",
"1X c #F4CA95",
"2X c #FED294",
"3X c #FED39C",
"4X c #F3D29D",
"5X c #E2C08F",
"6X c #F3CBA3",
"7X c #FECEA2",
"8X c #F3D2A5",
"9X c #FDD3A2",
"0X c #FBD4AA",
"qX c #FCDAAA",
"wX c #F8D7A7",
"eX c #FBDAB5",
"rX c #E8C9A7",
"tX c #D7D5C7",
"yX c #F9DED6",
"uX c #FBE5CB",
"iX c #FDECD7",
"pX c #FFF2DA",
"aX c #FCF4EB",
"sX c #FEFFFC",
"dX c #FFF8F3",
"fX c #F3EFE4",
/* pixels */
"                                                                                                                                ",
"                                                                                                                                ",
"                                                                                                                                ",
"                                                                                                                                ",
"                                                                p t u u u u u u u                                               ",
"                                                              D ~ 2.7.7.7.7.1.2.8.>.                                            ",
"                                                          S S _ ^.=X=X=X:X=X[.-X:XU.~ ~                                         ",
"                                                        V } $.!.@XB.x.M.M.n.m.m.n._.E.E.Z                                       ",
"                                                        N #.} ~.@XV.x.M.M.n.n.l.M.).E.E.C                                       ",
"                                                      l #.~.!.<X;X@X:X*X6X&X=X=X[.7XW.W.z                                       ",
"                                                    T [ d.[.{.3X<X9XuXiXpXpXiXiXeXeXQ.Q.C                                       ",
"                                                  , l j.l.{.{.9XwXuXdXsXsXfXtXdXfXuXQ.OXV                                       ",
"                                                  > t &.u.[.{.9XeXuXdXsXsXtXm XXfXuXQ.Q.V                                       ",
"                                            t w w e 6 l p..X.X7X1XW.yXdXdXtXt t h.&XW.Q.V                                       ",
"                                          g { ..| h.U.#.Q t.t.{.#X+X XoXoXT.X.' j.7XW. Xp @                                     ",
"                                          l  .....h.U.#.U t.t.[.#X+X XoXoXT.X.' j.7XW.W.p *                                     ",
"                                        U X.!..X].-X9XE.k Y Q N.2X3X|.|./.^.{.[.;XqXW.W.N B E                                   ",
"                                      l ' !.7X7X7X<X9XrXj Q Q ^.3X9XW.I.I.rXqX(.$XwXE.W.A 4.4.D                                 ",
"                                    l | !.<X9X9X9X<X3X*XW ` ` N.<X,X/ - - <.tX/ 6.wXY.Y.^ !.$X3.a a                             ",
"                                k p $.!.>X<X3X9X7X3X<X,X|.x.x.f.N.-X! + + t J w r.c. .*.R.<X9Xz.B A                             ",
"                                d d U.7X9X3X8X9X9X9X3X9XwX;X;Xs.Y v.s.X.X.X.` | =.1.c.c.8X3X9X|.$.#.V                           ",
"                                d d U.<X<X3X9X9X9X9X<X<X3X1X;Xs.Y x.a.X.X.X.[ | =.1.P.c.8XwX3X|.#.$.V                           ",
"                              D { { |.3X3X4X3X3X3X9X8X3X3XwXwX_.| ! Y ` ` ` ! ! { U.8XwX3X4X3X-Xi.i.N                           ",
"                            8 A g.g.=X3X3X3X2X#X#X3X9X3X2X3X4X9X|.W z S S G S G Y.9X3X3X#X2X3X;Xj.h.D c                         ",
"                            e x h.z.;X3X7X3X#X#X#X1X3X9X2X3X2X3X8X1X*XrX%X&X$X$X4XwX1X1Xv.=X3X3X}.}.E b                         ",
"                            8 E }.}.3X9X9X<X2X).).+X9X9X2X3X<X3X3X3X9X].=X/.3X9X3X3X(.(.` R.9X9X X%XJ b                         ",
"                            7 ~ ,X6X3X3X9X7X/.....a.9X9X3X;X2X<X3X3X3XC.`.m.;X9X3X;Xa.a.g c.3X9X&X&XJ                           ",
"                            8 ~ ,X,X9X<X9X7X/.X...a.7X9X2X3X<X3X3X3X3X`.C.B.;X9X3X2Xa.a.g c.3X9X&X%XJ                           ",
"                            8 ~ ,XrX3X-X+X).%.5 5 X.-X3X3X@X#X=X7X<X@XV.V.l.[.<X9X^.] ] Y c.;X9X&X&XJ                           ",
"                            : ~ &X&X3X'.M.p.q % O ! B.@X-XN.B.B.>X-XV.y.y.y.l.[.7Xh.g g 4.v.'.9X XW.J                           ",
"                              C K.K.>X;X`.p.6 O O ! f.M.M.f.f.f.M.M.u.u.y.f.f.l.M.+.f d a.].<X:Xg.g.N                           ",
"                              V ( ( (.3X;XT.a . X 3.].[.+X'.+X'.^.l.l.N.V.[.[.l.[ 9 S V ^.;X9X!.W W N                           ",
"                                z j W.3X3X%Xc . X $.:X3X3X3X3X9X[.l.u./.`.9X<XB.T X Z Z :X3X9XU.d d                             ",
"                                k h T.3X3X%Xa . . ! T.[.@X;X;X3X-Xl.d.^.`.>X|.k.o.; V V :X3X7Xz.s s                             ",
"                                h k T.3X3X*Xu . . ~ T.[.@X;X;X9X-Xl.d.`./.<X].h.o.; C z $X9X<Xz.s s                             ",
"                                p p 1.$X3X%XC o o T j.M.l.[.@X3X@Xl.l././.1Xj.R D.9./ / *X0X).#.6 6                             ",
"                                    D z.3X9XE.G Z @ { |.-X>X>X3X@Xl..X3X<X;X/.N e 9.OXOX7X0Xs.j                                 ",
"                                    w 0.9X;X`.4.i.w z (.0X9X9X3X;XB.=XqXqX3X!.V G c.C._./.,X2.7                                 ",
"                                    s q.0X>X`.n.n.! y #.K.+X1X$Xb.=.0.G.L.U.p.l I.@Xd.y.N.6X2.7                                 ",
"                                    0 r.0X7X7X^.`.] @ : 6 w.w.G.u i i < 1 E %.B e.).N.N.<X0X2.7                                 ",
"                                    7 r.wX0X7X^.^._ * 2 4 g.w.G.u i i 1 i E #.l e.].N.N.>XeX2.7                                 ",
"                                    u F.8X8X8X6X6X9.$ 4 t t q P A.P Z.Z.Z.P p u p 2.:X:X8X8X9.9                                 ",
"                                      o.@.) +.-.-.m & * : - * L J.S.A.A.S.P > & o a +.) +.>.@.                                  ",
"                                        > e r = = X > H ~ c c M P I I L L n i K v & 3 * : ;                                     ",
"                                              V N N D 5.r./ / a b v b c c p S ,.o.D                                             ",
"                                            x 4.4.j.%.k 5.r.r.2.;.-.;.;.:.5.5.x { $.8 8                                         ",
"                                            R 4.4.j.1.k 1.r.r.8.;.-.;.;.:.2.5.x { $.8 8                                         ",
"                                          Z L.:X:X/.| s 3.G.r.r.3.;.3.9.8.z.e.h [ %.4 4                                         ",
"                                          V rXqXqX;Xg.s 3.G.G.r.6.3.3.5.5.G.9.f 4.e.8 8                                         ",
"                                          z $X9X3X3X(.! ) 9.9.r.6.3.3.q.q.q.;.*.}.I.9 8                                         ",
"                                          z }.3X3X3X>Xg.k / / r.6.5.6.L.L.*.x (.0XH.7 6                                         ",
"                                          c w.=X=X3X9X&Xx / / K.0.1.0.G.z.) z (. X@.8 w                                         ",
"                                          N x s.s.'.3X*XU ( ( I.z.q.g.K.L.;.f s...l                                             ",
"                                          z x s.s.'.3X1XU ( ( I.z.H.g.L.L.;.f s...D                                             ",
"                                            3 1.1.1X3X*XS a N O.O.O.o.H H o.9.T.! @                                             ",
"                                            W (.R.3X3X%Xz - = , 1 r ; 4 2 3.8X9X0.S                                             ",
"                                          H &X9X9X9X-Xh.h 1 r       e T E !.[.>X8XK.z z                                         ",
"                                        K W.0X0X9X|.M.k.j a v       v ^ ^ U.N.>XqXwXL.L.b                                       ",
"                                      = b >.:.+.@.~ T D u n n       M c v E E o.O.>.O.K r                                       ",
"                                      - b >.+.+.@./ T D e n n       M n c D E o.<.+.O.O.r                                       ",
"                                        - $ $ # # - ; ; 1             , , ; - # o # # # =                                       ",
"                                                                                                                                ",
"                                                                                                                                ",
"                                                                                                                                "
};
