/* XPM */
static char *ennemy21703351528[] = {
/* columns rows colors chars-per-pixel */
"64 64 228 2 ",
"   c None",
".  c #120D09",
"X  c #26120C",
"o  c #211410",
"O  c #200E0C",
"+  c #29261A",
"@  c #322A1F",
"#  c #362726",
"$  c #3A332C",
"%  c #2E3333",
"&  c #46281A",
"*  c #4C2F23",
"=  c #48372A",
"-  c #583728",
";  c #4D3A35",
":  c #443539",
">  c #423C39",
",  c #473A39",
"<  c #593E33",
"1  c #523E38",
"2  c #5A2F22",
"3  c #693F25",
"4  c #4D4037",
"5  c #4B443D",
"6  c #4A4939",
"7  c #524234",
"8  c #54463C",
"9  c #57493D",
"0  c #5B4639",
"q  c #4D412D",
"w  c #6B422B",
"e  c #624C3C",
"r  c #694737",
"t  c #724A32",
"y  c #754D3A",
"u  c #66533E",
"i  c #74523E",
"p  c #4C4A43",
"a  c #4D4D4B",
"s  c #494444",
"d  c #554B43",
"f  c #5A4A4C",
"g  c #584A47",
"h  c #56524A",
"j  c #5C524A",
"k  c #5D5949",
"l  c #544E52",
"z  c #595659",
"x  c #485245",
"c  c #654E46",
"v  c #675749",
"b  c #765D4B",
"n  c #775A47",
"m  c #675955",
"M  c #755D55",
"N  c #7D5D52",
"B  c #6D604E",
"V  c #7A654C",
"C  c #78664C",
"Z  c #6A665A",
"A  c #7C6256",
"S  c #74685A",
"D  c #7C775F",
"F  c #525E6B",
"G  c #5F606B",
"H  c #656564",
"J  c #766969",
"K  c #696A75",
"L  c #717672",
"P  c #88583B",
"I  c #804D36",
"U  c #9E653D",
"Y  c #93613E",
"T  c #825C45",
"R  c #925E49",
"E  c #856046",
"W  c #886749",
"Q  c #996948",
"!  c #95774D",
"~  c #8C6C53",
"^  c #8D6C58",
"/  c #856959",
"(  c #916A5D",
")  c #857159",
"_  c #8B745E",
"`  c #8C7758",
"'  c #9B795F",
"]  c #977558",
"[  c #A57A5C",
"{  c #A77759",
"}  c #B7774E",
"|  c #856C64",
" . c #877668",
".. c #937561",
"X. c #927C64",
"o. c #977C6A",
"O. c #8A7B75",
"+. c #AA825C",
"@. c #B6815A",
"#. c #9D8A6C",
"$. c #9A866B",
"%. c #998877",
"&. c #A18663",
"*. c #A1856E",
"=. c #A38B6C",
"-. c #AD8E6F",
";. c #A98965",
":. c #B98160",
">. c #BD8964",
",. c #BD8F6B",
"<. c #B38766",
"1. c #B5946B",
"2. c #A48D74",
"3. c #AA8D72",
"4. c #B68E73",
"5. c #AA9479",
"6. c #B49473",
"7. c #BC9372",
"8. c #B39B74",
"9. c #BC9B73",
"0. c #B5967B",
"q. c #BC9A7A",
"w. c #B7987C",
"e. c #AA916E",
"r. c #D48C5C",
"t. c #D78F5C",
"y. c #E4935D",
"u. c #C98964",
"i. c #C99669",
"p. c #DE9565",
"a. c #D7956A",
"s. c #C49A75",
"d. c #C99B79",
"f. c #D59874",
"g. c #D18F62",
"h. c #E39464",
"j. c #E59C69",
"k. c #E28F68",
"l. c #DFA06D",
"z. c #C9A478",
"x. c #DCA274",
"c. c #D6A37A",
"v. c #E3A26B",
"b. c #EAA36D",
"n. c #E4A473",
"m. c #E6AA73",
"M. c #EFAF7E",
"N. c #E9A878",
"B. c #E6B17B",
"V. c #F4B37D",
"C. c #F2A97D",
"Z. c #848C98",
"A. c #AA9886",
"S. c #BE9A80",
"D. c #BDA884",
"F. c #9C9BA6",
"G. c #A5A6A1",
"H. c #C19E81",
"J. c #D49E81",
"K. c #C1A484",
"L. c #C9A688",
"P. c #DDAB81",
"I. c #D4A983",
"U. c #D9B588",
"Y. c #C4AA95",
"T. c #DEB392",
"R. c #DBB999",
"E. c #E1AD83",
"W. c #EBAC81",
"Q. c #E4B383",
"!. c #EAB582",
"~. c #EBBA84",
"^. c #E3B28A",
"/. c #ECB48B",
"(. c #EDBB8D",
"). c #E5BB8C",
"_. c #F2B584",
"`. c #F9BB86",
"'. c #F3BC8A",
"]. c #FABC8B",
"[. c #F5BA86",
"{. c #E5BA94",
"}. c #F4BE92",
"|. c #E2BFA0",
" X c #DCC49C",
".X c #F5C28C",
"XX c #FAC18A",
"oX c #FBCA8E",
"OX c #F6C486",
"+X c #EDC694",
"@X c #ECC49D",
"#X c #EAC997",
"$X c #F3C393",
"%X c #FAC293",
"&X c #FCCA96",
"*X c #F3C59C",
"=X c #FCC69A",
"-X c #F4CB9C",
";X c #FCCC9B",
":X c #F5CB96",
">X c #FED395",
",X c #FDD29C",
"<X c #F8D49D",
"1X c #D6C3A1",
"2X c #D9C4A9",
"3X c #F7C5A2",
"4X c #F6CCA3",
"5X c #FDCEA1",
"6X c #F7C6A5",
"7X c #FDD3A2",
"8X c #FDDCA3",
"9X c #FDD4AA",
"0X c #FADAAA",
"qX c #F7D7AA",
"wX c #EED5B4",
"eX c #EBD5BE",
"rX c #F7D8B3",
"tX c #E6C4A1",
"yX c #F4E0B5",
"uX c #D1CBCD",
"iX c #D1CBCA",
"pX c #F7DEC8",
"aX c #FFECCD",
"sX c #FEEDD7",
"dX c #FDF3DA",
"fX c #FFF6E4",
"gX c #FFF8EA",
"hX c #FCFBF5",
/* pixels */
"                                                                                                                                ",
"                                                                                                                                ",
"                                                                                                                                ",
"                                                              c g h h h h l g j                                                 ",
"                                                            ( ' -.3.3.3.-.6.3.3.o.                                              ",
"                                                        A N [ '.%X*X}.*X].].XX$X6.o.                                            ",
"                                                      N <.<.(.XXm.n.c.N.v.n.b.m.*X5.v                                           ",
"                                                    T <.(.(.;X;XoX:X4X4X3X3X&X&X7Xe.c                                           ",
"                                                  ( :.a..X`.<X<XqXaXfXfXfXfXsXrXrX2.c                                           ",
"                                                  / :.a.XXOX<X<X0XaXfXfXfXfXsXrXrX2.v                                           ",
"                                                m n f.j.`.`.,XrXdXhXhXuXuXuXhXsXrX2.j                                           ",
"                                                m < { a.XX`.>X7XpXhXhXG.z l iXaXrX3.m                                           ",
"                                                 .< I :.V._.&X%X/.pXdXD.= = y d.-X6.m                                           ",
"                                          B B 0 ] f.u.I [ } '.;X%X{.c.x.u.u.f.}.7X3.v                                           ",
"                                        M [ { @.f.3X{.y Q U ~.9X9X.X.X.X].].3X7X8Xe.# m m                                       ",
"                                      N { W.W.}.&X5X}.y U U _.9X4X1.!  XwXwXd.#X8X&.& ( ( A                                     ",
"                                      N [ W.W.}.&X,X*Xt U U _.9X-X1.!  XwXwXs.#X8X+.* ( ( A                                     ",
"                                    A { W.=X;X9X<X,X$X{ } } W.].:X;.W 2XeXpXw.#XU.<.7.I.I...D                                   ",
"                                  A ] E.&X>X;X9X7X>X&Xm.p.p.u.a.XX%X3X6X3X3X*X^.+.z.9X;X3XI.v m                                 ",
"                                9 ' ^.>X<X,X,X7X>X>X>XoXM.M.} Q g.h.a.g.i.i.u.Q K.4X7X,X>X*X^ M                                 ",
"                                ; s.;X>X,X,X,X,X>X7X7X7X;X;X.Xs.t w t t 3 3 P c.<X8X,X>X>X;XI.( m                               ",
"                            S S { ^.5X,X,X>X,X>X,X7X5X5X7X,X<X+Xs.w.q.9.9.7.z.&X<X,X,X>X,X;XN.T f                               ",
"                            1 1 @.}.7X,X7X>X,X,X,X,X7X;X>X,X>X,X,X9X9X7X,X,X,X7X7X=X*X5X7X;XOX! l                               ",
"                            7 7 i.%X7X7X,X,X>X&X&X,X7X,X,X,X,X<X,X,X:X;X,X,X,X<X7XP.c.;X;X,X<X#.l                               ",
"                            7 7 i.$X7X,X,X>X,X=X&X,X7X,X<X<X,X>X,X,X&X&X,X>X,X7X7XP.c.5X5X7X,X+.l                               ",
"                            9 9 P.;X,X,X,X;X;XE.E.,X7X,X7X4X<X7X7X,XB.!.,X,X,X7X5X+.! ;X;X7X,X#.l                               ",
"                            9 9 {.,X>X,X;X^.E.U >.7X7X<X7X,X,X,X7X&XN.M.;X;X;X5X).T W ;X;X,X7X&.a                               ",
"                            9 9 R.<X'.!.E.Q Q & Q '.5X;X'.'.'.7X5XV.h.v.[.[.,X;X>.W >.Q.Q.,X9X*.a                               ",
"                            4 4 L.;XoXN.i.- 2 X T f._.V.j.l.v.[._.j.y.t.j.j._./.T R x.!.Q.&X*XX.a                               ",
"                            m m o.).,X=XJ.7 0 o ^ E.N.b.n.n.b.j.h.y.j.b.b.b.k.:.3 ] /.>X,X;XJ.| H                               ",
"                                r z.7X;X@Xu u o *.7X;XoX;X;X&X`.h.y.].3X].].r.w X 3.,X7X7X&XW M                                 ",
"                                e d.7X7X@Xc u o *.5X&XoX&X&X;X`.h.h.].;X].].r.3 X 3.7X7X,X-X~ M                                 ",
"                                = 9.9X8X#Xu u o *.9X,X,X7X<X7X].h.h.}.9X%X].g.- . 5.7X,X,X-XT m                                 ",
"                                , *.:X,X#X0 e O ] (.,X,X7X7X7XXXh.h.}.9X%X%Xi.< . 2.8X<X,XU.b m                                 ",
"                                  | d.>X<X0.0.< P n._._.:X&X7XXXh.k.].;Xc.c.R & b T.8X#X#X&.J                                   ",
"                                  g ] ,X7X-X*X<.R u.n.m..X.X>XXXj.N.;X$Xu.>.2 n T.%X&X).).i                                     ",
"                                  ; ' 7X;XB.B.z.Q Y '.>X;X>X5XQ.i.U.#X:Xi.i.E R./.h.!.{.).v                                     ",
"                                  , ..7X>XoX.XQ.Q t I.-X9X7XK.c e k j <.@.@.n |.W.C.>X X Xb                                     ",
"                                  > X.0X8XqX9X4Xe.& i ( ..' O.K H F z / r w - ) T.;X0X1X XB                                     ",
"                                  > X.0X,X8X7X4X2.& i ^ ..( O.K G F F N t r * _ T.5X0X1X1XB                                     ",
"                                    %.0.0.0.0.0.D + + # # # L F.Z.Z.Z.K # $ + + X.s.6.5.5.%.                                    ",
"                                      8 8 8 d 8 > $ = : : $ Z L K K K z : : $ % > p 4 k k                                       ",
"                                                J = = 7 ; ; 6 6 x p x 8 < < = s                                                 ",
"                                                S u 5.6.A.5.#.` _ X._ #.0.0.%.h                                                 ",
"                                              S W $.^ w.D.D.8.;.&.2.=.1.1.6.M 5                                                 ",
"                                              2.z.s.- 2.D.z.8.&.#.#.1.z.&.&.+ %                                                 ",
"                                              2.z.s.= #.D.D.e.&.#.#.1.i.&.&.+ %                                                 ",
"                                          j k D.8X^.~ $.8.8.8.e.#.#.1.9.' ' u 5                                                 ",
"                                          h d z.8X:XJ.e ] &.9.8.&.;.9.~ E A 7.v                                                 ",
"                                          g f d.,X,X{.c ` ` z.9.-.w.D.C ) ) {.b                                                 ",
"                                          f f ;.$X<X$Xe ) ) L.q.S.K.D.V C C K.n                                                 ",
"                                              | ,.'.:XH._ $.C ) _ V n Q ! ] _  .                                                ",
"                                              h W ~.,X9X ._ @ 6 = C W i.,.,.v                                                   ",
"                                              h W ~.,X9X_ _ # 6 = C W i.,.9.j                                                   ",
"                                              x ` ,X7X5X_ _ p   m R.qX,Xz.z.j                                                   ",
"                                              B &.7X,X;X_ _ h   C @X9X7XI.I.B                                                   ",
"                                          S S A.{.,X;XT.B C j   v d.=X5X*X-XL. .                                                ",
"                                        L A.A.tX9X&X~.d.b b m   y 4.E.=X9X7XqXK.$.                                              ",
"                                        g A.A.Y.L.s.[ o.c c m   g  .o.4.L.L.L.D.S p                                             ",
"                                        p > > , ; 1 1 s a s     l 1 1 1 ; ; ; , s                                               ",
"                                                                                                                                ",
"                                                                                                                                ",
"                                                                                                                                ",
"                                                                                                                                "
};
