/* XPM */
static char *Screen_Shot_2023_12_23_at_12_59_11_PM1703347214[] = {
/* columns rows colors chars-per-pixel */
"64 64 42 1 ",
"  c #81864C",
". c #81864B",
"X c #82864F",
"o c #768336",
"O c #768437",
"+ c #768336",
"@ c #748537",
"# c #6B8E3A",
"$ c #6A8F3B",
"% c #738637",
"& c #64953D",
"* c #62983E",
"= c #718838",
"- c #61983E",
"; c #62973E",
": c #758436",
"> c #6D8B39",
", c #6C8D3A",
"< c #728738",
"1 c #6E8A39",
"2 c #6E8B39",
"3 c #60993F",
"4 c #67923C",
"5 c #758437",
"6 c #708938",
"7 c #6A903B",
"8 c #5F9A3F",
"9 c #69903B",
"0 c #65943D",
"q c #6C8E3A",
"w c #758336",
"e c #6D8C39",
"r c #748437",
"t c #6F8939",
"y c #63963D",
"u c #728737",
"i c #68913C",
"p c #63963E",
"a c #6E8C3A",
"s c #6F8A39",
"d c #65953D",
"f c white",
/* pixels */
"oooooooooooooooooooooooooooooooooooooooooooooooooooooooooooooooo",
"ooooooooooooooooooooooooooooooooooooooooooooooooooooooooooooOOo+",
"ooooooooooooooooooooooooooooooooooooooooooooooooooooooooooo@#$%+",
"ooooooooooooooooooooooooooooooooooooooooooooooooooooooooooo%&*=+",
"ooooooooooooooooooooooooooooooooooooooooooooooooooooooooooo%&*=+",
"ooooooooooooooooooooooooooooooooooooooooooooooooooooooooooo%&*=+",
"ooooooooooooooooooooooooooooooooooooooooooooooooooooooooooo%&*=+",
"ooooooooooooooooooooooooooooooooooooooooooooooooooooooooooo%&*=+",
"ooooooooooooooooooooooooooooooooooooooooooooooooooooooooooo%&-=+",
"ooooooooooooooooooooooooooooooooooooooooooooooooooooooooooo%&;=+",
"ooooooooooooooooooooooooooooooooooooooooooooooooooooooooooo:>,@+",
"ooooooooooooooooooooooooooooooooooooooooooooooooooooooooooooooo+",
"ooooooooooooooooooooooooooooooooooooooooooooooooooooooooooooooo+",
"ooooooooooooooooooooooooooooooooooooooooooooooooooooooooooooooo+",
"ooooooooooooooooooooo<#1:oooooooooooooooooooooooooooooooooooooo+",
"ooooooooooooooooooooo2345oooooooooooooooooooooooooooooooooooooo+",
"ooooooo=#6ooooooooooo2345oooooooooooooooooooooooooooooooooooooo+",
"ooooooo#37ooooooooooo2345oooooooooooooooooooooooooooooooooooooo+",
"ooooooo#87ooooooooooo2345oooooooooooooooooooooooooooooooooooooo+",
"ooooooo#89ooooooooooo2345oooooooooooooooooooooooooooooooooooooo+",
"ooooooo#80q6ooooooooo=$>:oooooooooooooooooooooooooooooooooooooo+",
"ooooooo#8889:ooooooooowoooooooooooooooooooooooooooooooooooooooo+",
"ooooooo#8889:oooooooooooooooooooooooooooooooo@e2roooooooooooooo+",
"ooooooo#8889:oooooooooooooooooooooooooooooooo=;&%oooooooooooooo+",
"ooooooot9&89:oooooooooooooooooooooooooooooooo=;yuoooooooooooooo+",
"oooooooo:#89:oooooooooooooooooooooooooooooooo=;yuoooooooooooooo+",
"ooooooooo6i2ooooooooooooooooooooooooooooooooo=;yuoooooooooooooo+",
"oooooooooo:wooooooooooooooooooooooooooooooooo=;yuoooooooooooooo+",
"ooooooooooooooooooooooooooooooooooooooooooooo%$#@oooooooooooooo+",
"oooooooooooooooooooooooooooooooooooooooooooooo::ooooooooooooooo+",
"ooooooooooooooooooooooooooooooooooooooooooooooooooooooooooooooo+",
"ooooooooooooooooooooooooooooooooooooooooooooooooooooooooooooooo+",
"ooooooooooooooooooooooooooooooooooooooooooooooooooooooooooooooo+",
"ooooooooooooooooooooooooooooooooooooooooooooooooooooooooooooooo+",
"ooooooooooooooooooooooooooooooooooooooooooooooooooooooooooooooo+",
"ooooooooooooooooooooooooooooooooooooooooooooooooooooooooooooooo+",
"ooooooooooooooooooooooooooooooooooooooooooooooooooooooooooooooo+",
"ooooooooooooooooooooooooooooooooooooooooooooooooooooooooooooooo+",
"ooooooooooooooooooooooooooooooooooooooooooooooooooooooooooooooo+",
"ooooooooooooooooooooooooooooooooooooooooooooooooooooooooooooooo+",
"ooooooooooooooooooooooooooooooooooooooooooooooo:66:oooooooooooo+",
"ooooooooooooooooooooooooooooooooooooooooooooooo<&&%oooooooooooo+",
"ooooooooooooooooooo@6<ooooooooooooooooooooooooo<;p%oooooooooooo+",
"ooooooooooooooooooo2;9:oooooooooooooooooooooooo<;p%oooooooooooo+",
"oooooooooooooooooooa34:oooooooooooooooooooooooo<;p%oooooooooooo+",
"oooooooooooooooooooa34:oooooooooooooooooooooooo<;p%oooooooooooo+",
"oooooooooooooooooooa34:oooooooooooooooooooooooo<;p%oooooooooooo+",
"oooooooooooooooooooa34:oooooooooooooooooooooooo<;p%oooooooooooo+",
"oooooooooooooooooooa34:oooooooooooooooooooooooo%44%oooooooooooo+",
"oooooooooooooooooooa34:ooooooooooooooooooooooooo@@ooooooooooooo+",
"ooooooooooooooooooosd$:oooooooooooooooooooooooooooooooooooooooo+",
"ooooooooooooooooooo:%@ooooooooooooooooooooooooooooooooooooooooo+",
"ooooooooooooooooooooooooooooooooooooooooooooooooooooooooooooooo+",
"ooooooooooooooooooooooooooooooooooooooooooooooooooooooooooooooo+",
"ooooooooooooooooooooooooooooooooooooooooooooooooooooooooooooooo+",
"ooooooooooooooooooooooooooooooooooooooooooooooooooooooooooooooo+",
"ooooooooooooooooooooooooooooooooooooooooooooooooooooooooooooooo+",
"ooooooooooooooooooooooooooooooooooooooooooooooooooooooooooooooo+",
"ooooooooooooooooooooooooooooooooooooooooooooooooooooooooooooooo+",
"ooooooooooooooooooooooooooooooooooooooooooooooooooooooooooooooo+",
"ooooooooooooooooooooooooooooooooooooooooooooooooooooooooooooooo+",
"ooooooooooooooooooooooooooooooooooooooooooooooooooooooooooooooo+",
"ooooooooooooooooooooooooooooooooooooooooooooooooooooooooooooooo+",
"ooooooooooooooooooooooooooooooooooooooooooooooooooooooooooooooo+"
};
