/* XPM */
static char *player_U1703347214[] = {
/* columns rows colors chars-per-pixel */
"64 64 256 2 ",
"   c None",
".  c black",
"X  c #000001",
"o  c #030201",
"O  c #040302",
"+  c #050302",
"@  c #010204",
"#  c #020307",
"$  c #0B0604",
"%  c #0C0704",
"&  c #0C0804",
"*  c #0D0805",
"=  c #0D0905",
"-  c #0E0804",
";  c #0E0805",
":  c #0F0905",
">  c #0F0906",
",  c #0F0A06",
"<  c #0F0A07",
"1  c #05060D",
"2  c #05070E",
"3  c #07080F",
"4  c #0B090A",
"5  c #0D0B0F",
"6  c #100A06",
"7  c #100B06",
"8  c #100B07",
"9  c #120C07",
"0  c #130C07",
"q  c #130D07",
"w  c #130D08",
"e  c #140D08",
"r  c #150E09",
"t  c #160F09",
"y  c #160F0A",
"u  c #17100A",
"i  c #1A1009",
"p  c #1B100A",
"a  c #1C110A",
"s  c #060912",
"d  c #070912",
"f  c #080912",
"g  c #0D0C11",
"h  c #0A0C17",
"j  c #060C18",
"k  c #060C19",
"l  c #050D1C",
"z  c #0A0D1A",
"x  c #0B0E1A",
"c  c #0C0E1A",
"v  c #0C0E1B",
"b  c #0C0F1B",
"n  c #130F10",
"m  c #1B1314",
"M  c #20150C",
"N  c #21150D",
"B  c #25160D",
"V  c #25170D",
"C  c #26170D",
"Z  c #26170E",
"A  c #23180E",
"S  c #25190F",
"D  c #2C1A0F",
"F  c #211711",
"G  c #231913",
"H  c #271A10",
"J  c #241912",
"K  c #241913",
"L  c #221816",
"P  c #251A14",
"I  c #251B15",
"U  c #271C15",
"Y  c #2C1B10",
"T  c #2E1B10",
"R  c #2E1C10",
"E  c #2F1D11",
"W  c #2B1E16",
"Q  c #2B1F17",
"!  c #301D11",
"~  c #301E11",
"^  c #311E11",
"/  c #321E11",
"(  c #311E12",
")  c #341F12",
"_  c #352013",
"`  c #342113",
"'  c #352113",
"]  c #312114",
"[  c #322114",
"{  c #372214",
"}  c #352415",
"|  c #382315",
" . c #392315",
".. c #3B2314",
"X. c #392415",
"o. c #3B2516",
"O. c #3C2414",
"+. c #3C2415",
"@. c #3E2516",
"#. c #3F2616",
"$. c #3F2617",
"%. c #3F2717",
"&. c #332318",
"*. c #3D2818",
"=. c #3E2918",
"-. c #121725",
";. c #0C1D3C",
":. c #2A2225",
">. c #2C262E",
",. c #272733",
"<. c #3A2F33",
"1. c #3A2F34",
"2. c #393136",
"3. c #402717",
"4. c #412717",
"5. c #412818",
"6. c #422818",
"7. c #422918",
"8. c #432918",
"9. c #402A19",
"0. c #402B1A",
"q. c #412B1A",
"w. c #442A19",
"e. c #452B19",
"r. c #452B1A",
"t. c #462B1A",
"y. c #412C1A",
"u. c #422C1A",
"i. c #432D1B",
"p. c #462C1A",
"a. c #472D1A",
"s. c #472C1B",
"d. c #472D1B",
"f. c #442E1C",
"g. c #462E1C",
"h. c #462F1C",
"j. c #472F1C",
"k. c #452E1F",
"l. c #462E1F",
"z. c #492D18",
"x. c #482D1B",
"c. c #482F1C",
"v. c #492F1C",
"b. c #482F1D",
"n. c #4A2F1C",
"m. c #48301D",
"M. c #4B301C",
"N. c #4A301D",
"B. c #4A311E",
"V. c #4A321E",
"C. c #4D311D",
"Z. c #4D321E",
"A. c #4E321E",
"S. c #4E331E",
"D. c #4E331F",
"F. c #4E341F",
"G. c #53351D",
"H. c #54371F",
"J. c #443124",
"K. c #4F3624",
"L. c #523620",
"P. c #533621",
"I. c #523721",
"U. c #533721",
"Y. c #523523",
"T. c #533624",
"R. c #553724",
"E. c #573920",
"W. c #543822",
"Q. c #553822",
"!. c #553922",
"~. c #563822",
"^. c #563922",
"/. c #563823",
"(. c #563923",
"). c #573A23",
"_. c #583920",
"`. c #583921",
"'. c #583A20",
"]. c #583A21",
"[. c #583A23",
"{. c #583B23",
"}. c #583B24",
"|. c #593B24",
" X c #583926",
".X c #593B27",
"XX c #593C24",
"oX c #5D3E27",
"OX c #5A3B28",
"+X c #57433F",
"@X c #67462D",
"#X c #67462E",
"$X c #674631",
"%X c #674936",
"&X c #6C4A32",
"*X c #6D4B32",
"=X c #694C39",
"-X c #6B4D3A",
";X c #704C36",
":X c #71503B",
">X c #72513B",
",X c #76533C",
"<X c #7E573F",
"1X c #10264F",
"2X c #1C2D52",
"3X c #1A356A",
"4X c #1F3B71",
"5X c #193C79",
"6X c #1A3E7B",
"7X c #223A6C",
"8X c #273D6F",
"9X c #273E70",
"0X c #463E41",
"qX c #4A3F40",
"wX c #264277",
"eX c #2E487B",
"rX c #364B7D",
"tX c #4C4345",
"yX c #4D4547",
"uX c #4D4647",
"iX c #7A5640",
"pX c #7D5942",
"aX c #6C5959",
"sX c #494D6B",
"dX c #80593E",
"fX c #845C42",
"gX c #896045",
"hX c #886047",
"jX c #876149",
"kX c #93684D",
"lX c #94684D",
"zX c #966A4F",
"xX c #976B4F",
"cX c #9A6D50",
"vX c #9A6D51",
"bX c #9A6E51",
"nX c #9C6E52",
"mX c #9C6E53",
"MX c #996F57",
"NX c #A27356",
"BX c #A47557",
"VX c #AA7A5C",
"CX c #AF7D5E",
"ZX c #947266",
"AX c #1C4794",
"SX c #1C4A98",
"DX c #1E4B98",
"FX c #30538A",
"GX c #34558B",
"HX c #204E9B",
"JX c #214F9D",
"KX c #23539E",
"LX c #375C94",
"PX c #375D94",
"IX c #2358A9",
"UX c #2860B2",
/* pixels */
"                                                                                                                                ",
"                                                                                                                                ",
"                                                                                                                                ",
"                                                                                                                                ",
"                                                                                                                                ",
"                                                                                                                                ",
"                                                                                                                                ",
"                                                                                                                                ",
"                                                                                                                                ",
"                                                                                                                                ",
"                                                                                                                                ",
"                                                                                                                                ",
"                                                    . . . .     . . . . . . . .                                                 ",
"                                                    . O , w     , 6 w y u 6 + .                                                 ",
"                                            . . . . . , ` } 9 % B ` *.a.f.] 9 .                                                 ",
"                                            , 6 w y w H N.b.M i { C.W.W.N.] , .                                                 ",
"                                        . , B ` =.y.y.N.W.C.o.{ b.W.}.m.S , . .                                                 ",
"                                        . , ` C.W.XXXX}.}.W.x.C.P.}.}.N.A 6 6 ,                                                 ",
"                                        . 9 %.W.[.XXXX{.W.W.W.W.[.[.XXU.a.=.{ N % .                                             ",
"                                        % N g.}.}.XXW.[.XX[.[.W.[.[.W.[.XXW.C. .p ,                                             ",
"                                    . % B o.F.}.[.W.XXXX[.XXXXW.W.[.W.{.{.[.W.N. .B % .                                         ",
"                                    . , ^ x.P.[.[.XX[.W.W.W.[.[.{.[.[.{.XXW.{.W.x.^ 6 .                                         ",
"                                    . , ^ x.P.[.[.W.XXW.XX[.W.XX[.XXW.{.[.[.[.P.a.^ , .                                         ",
"                                    . , E a.P.[.XXW.[.[.XXW.[.XXW.W.[.{.[.W.[.P.a.E , .                                         ",
"                                    . , ! s.P.}.}.[.[.W.XX[.W.W.XX[.{.{.[.[.XXP.x.E , .                                         ",
"                                    . , ! s.C.P.W.}.[.}.W.[.XX[.XXW.W.[.W.}.U.C.r.E % .                                         ",
"                                    . , ^ r.r.b.P.}.[.[.{.[.[.XX[.{.W.{.}.P.N.a.8.^ 6 .                                         ",
"                                    . % Z ) +.r.C.H.P.U.W.XXW.W.W.[.W.U.P.C.u.%.3.^ , .                                         ",
"                                        , p ) 3.a.u.r.b.P.[.W.[.}.P.b.r.r.r.3.3.6.^ , .                                         ",
"                                        . % T 3.%.%.+.r.C.P.P.H.P.n.r.3.%.%.3.+.{ B % .                                         ",
"                                        . , D 3.3.3.3.3.r.r.r.a.s.r.3.3.3.3.%./ p %                                             ",
"                                        . y b.}.r.%.%.%.3.3.3.3.3.3.3.+.%.s.R.g.y .                                             ",
"                                        . U :XfXR.+...3.3.3.3.3.3.3.@.+.+.R.fX:XG .                                             ",
"                                        . U =XpX$XOX XY.r.+.%.+.+.r.Y.OXOX$XpX-XU .                                             ",
"                                            U J.iXzXzXpXY.+.%.+...Y.fXlXvXiXJ.P                                                 ",
"                                            . F >XBXCXmX;X}.OX}.}.;XvXCXNX>XF .                                                 ",
"                                            . i Y.dXBXVXmXlXlXlXkXmXCXBXdXK.y .                                                 ",
"                                            . q *.#XfXzXcXmXcXcXcXcXcXfX@X=.q .                                                 ",
"                                            . 0 u.oX&X*X*X*X*X;X*X*X*X#XoXu.y .                                                 ",
"                                            . 0 u.|.[.P.P.[.P.P.W.P.W.W.[.u.9 .                                                 ",
"                                            . 9 u.XX}.W.[.W.[.[.W.[.W.[.XXy.9 .                                                 ",
"                                            U &.b.W.W.[.'.H.'.'.[.[.'.H.H.x.&.U                                                 ",
"                                        . U =X,XOXC.H.W.'.'.'.'.H.[.'.G.x.W.,X=XU .                                             ",
"                                        . Q jXMXuX2.J.uXyXtXqXqXtXyXyXqX2.+XMXjXQ .                                             ",
"                                        . Q fXZXsXwXFXLXLXGXeXeXGXLXLXFXwXsXZXhXQ .                                             ",
"                                        . U =XaXrXSXIXUXUXKX5X5XKXUXUXIXDXrXaX%XU .                                             ",
"                                          n J ,.9XAXDXDXJX5X;.;.6XJXHXHXAX7X,.J n                                               ",
"                                          1 . k 2X8XwX7X3X1Xk k 1X3X7X8X8X2Xk . 1                                               ",
"                                          3 . 4 :.1.<.>.-.k d d k -.>.<.1.:.4 . 1                                               ",
"                                      v z d # , E  .%.D , @ d d @ % D %.o.T 8 # d v c                                           ",
"                                      c c z f g m L L m 5 3 h z 3 g m L L m g f z c c                                           ",
"                                          c c             c c c c             b c                                               ",
"                                          c v v z z z z c v c c v v z z z z c v c                                               ",
"                                                                                                                                ",
"                                                                                                                                ",
"                                                                                                                                ",
"                                                                                                                                ",
"                                                                                                                                ",
"                                                                                                                                ",
"                                                                                                                                ",
"                                                                                                                                ",
"                                                                                                                                ",
"                                                                                                                                ",
"                                                                                                                                "
};
